<svg width="31" height="88" viewBox="0 0 31 88" fill="none" xmlns="http://www.w3.org/2000/svg">
<path d="M15.2906 28.3539C15.6388 28.3539 15.9211 28.0735 15.9211 27.7277C15.9211 27.3819 15.6388 27.1016 15.2906 27.1016C14.9423 27.1016 14.66 27.3819 14.66 27.7277C14.66 28.0735 14.9423 28.3539 15.2906 28.3539Z" fill="#68A99B"/>
<path d="M15.9211 29.3178C15.9211 29.6637 15.6389 29.9439 15.2906 29.9439C14.9422 29.9439 14.66 29.6637 14.66 29.3178C14.66 28.9719 14.9422 28.6917 15.2906 28.6917C15.6389 28.6917 15.9211 28.9719 15.9211 29.3178Z" fill="#D30000"/>
<path d="M15.2906 31.6192C14.8952 31.6192 14.5741 31.2997 14.5741 30.9078C14.5741 30.5159 14.8952 30.1964 15.2906 30.1964C15.6859 30.1964 16.007 30.5159 16.007 30.9078C16.007 31.2997 15.6853 31.6192 15.2906 31.6192ZM15.2906 30.3663C14.99 30.3663 14.7459 30.6093 14.7459 30.9071C14.7459 31.205 14.99 31.448 15.2906 31.448C15.5912 31.448 15.8352 31.205 15.8352 30.9071C15.8352 30.6093 15.5912 30.3663 15.2906 30.3663Z" fill="#68A99B"/>
<path d="M15.2906 33.124C15.6388 33.124 15.9211 32.8437 15.9211 32.4979C15.9211 32.1521 15.6388 31.8717 15.2906 31.8717C14.9423 31.8717 14.66 32.1521 14.66 32.4979C14.66 32.8437 14.9423 33.124 15.2906 33.124Z" fill="#68A99B"/>
<path d="M15.2906 34.714C15.6388 34.714 15.9211 34.4337 15.9211 34.0879C15.9211 33.7421 15.6388 33.4618 15.2906 33.4618C14.9423 33.4618 14.66 33.7421 14.66 34.0879C14.66 34.4337 14.9423 34.714 15.2906 34.714Z" fill="#68A99B"/>
<path d="M15.9211 35.678C15.9211 36.0239 15.6389 36.3041 15.2906 36.3041C14.9422 36.3041 14.66 36.0239 14.66 35.678C14.66 35.3321 14.9422 35.0518 15.2906 35.0518C15.6389 35.0518 15.9211 35.3321 15.9211 35.678Z" fill="#D30000"/>
<path d="M15.2906 37.9794C14.8952 37.9794 14.5741 37.6599 14.5741 37.268C14.5741 36.8761 14.8952 36.5566 15.2906 36.5566C15.6859 36.5566 16.007 36.8754 16.007 37.268C16.007 37.6606 15.6853 37.9794 15.2906 37.9794ZM15.2906 36.7272C14.99 36.7272 14.7459 36.9702 14.7459 37.268C14.7459 37.5658 14.99 37.8088 15.2906 37.8088C15.5912 37.8088 15.8352 37.5658 15.8352 37.268C15.8352 36.9702 15.5912 36.7272 15.2906 36.7272Z" fill="#68A99B"/>
<path d="M15.2906 39.4842C15.6388 39.4842 15.9211 39.2039 15.9211 38.8581C15.9211 38.5122 15.6388 38.2319 15.2906 38.2319C14.9423 38.2319 14.66 38.5122 14.66 38.8581C14.66 39.2039 14.9423 39.4842 15.2906 39.4842Z" fill="#68A99B"/>
<path d="M15.9211 40.4481C15.9211 40.794 15.6389 41.0742 15.2906 41.0742C14.9422 41.0742 14.66 40.794 14.66 40.4481C14.66 40.1022 14.9422 39.822 15.2906 39.822C15.6389 39.822 15.9211 40.1022 15.9211 40.4481Z" fill="#68A99B"/>
<path d="M15.2906 42.6643C15.6388 42.6643 15.9211 42.3839 15.9211 42.0381C15.9211 41.6923 15.6388 41.412 15.2906 41.412C14.9423 41.412 14.66 41.6923 14.66 42.0381C14.66 42.3839 14.9423 42.6643 15.2906 42.6643Z" fill="#D30000"/>
<path d="M15.2906 44.3396C14.8952 44.3396 14.5741 44.0208 14.5741 43.6282C14.5741 43.2356 14.8952 42.9167 15.2906 42.9167C15.6859 42.9167 16.007 43.2362 16.007 43.6282C16.007 44.0201 15.6853 44.3396 15.2906 44.3396ZM15.2906 43.0873C14.99 43.0873 14.7459 43.3303 14.7459 43.6282C14.7459 43.926 14.99 44.169 15.2906 44.169C15.5912 44.169 15.8352 43.926 15.8352 43.6282C15.8352 43.3303 15.5912 43.0873 15.2906 43.0873Z" fill="#68A99B"/>
<path d="M15.9211 45.2182C15.9211 45.5641 15.6389 45.8444 15.2906 45.8444C14.9422 45.8444 14.66 45.5641 14.66 45.2182C14.66 44.8723 14.9422 44.5921 15.2906 44.5921C15.6389 44.5921 15.9211 44.8723 15.9211 45.2182Z" fill="#68A99B"/>
<path d="M15.9211 46.8083C15.9211 47.1542 15.6389 47.4344 15.2906 47.4344C14.9422 47.4344 14.66 47.1542 14.66 46.8083C14.66 46.4624 14.9422 46.1821 15.2906 46.1821C15.6389 46.1821 15.9211 46.4624 15.9211 46.8083Z" fill="#68A99B"/>
<path d="M15.2906 49.0245C15.6388 49.0245 15.9211 48.7441 15.9211 48.3983C15.9211 48.0525 15.6388 47.7722 15.2906 47.7722C14.9423 47.7722 14.66 48.0525 14.66 48.3983C14.66 48.7441 14.9423 49.0245 15.2906 49.0245Z" fill="#D30000"/>
<path d="M15.2906 50.6998C14.8952 50.6998 14.5741 50.381 14.5741 49.9884C14.5741 49.5958 14.8952 49.2769 15.2906 49.2769C15.6859 49.2769 16.007 49.5964 16.007 49.9884C16.007 50.3803 15.6853 50.6998 15.2906 50.6998ZM15.2906 49.4475C14.99 49.4475 14.7459 49.6905 14.7459 49.9884C14.7459 50.2862 14.99 50.5292 15.2906 50.5292C15.5912 50.5292 15.8352 50.2862 15.8352 49.9884C15.8352 49.6905 15.5912 49.4475 15.2906 49.4475Z" fill="#68A99B"/>
<path d="M15.9211 51.5784C15.9211 51.9243 15.6389 52.2045 15.2906 52.2045C14.9422 52.2045 14.66 51.9243 14.66 51.5784C14.66 51.2325 14.9422 50.9523 15.2906 50.9523C15.6389 50.9523 15.9211 51.2325 15.9211 51.5784Z" fill="#68A99B"/>
<path d="M15.2906 53.7946C15.6388 53.7946 15.9211 53.5142 15.9211 53.1684C15.9211 52.8226 15.6388 52.5423 15.2906 52.5423C14.9423 52.5423 14.66 52.8226 14.66 53.1684C14.66 53.5142 14.9423 53.7946 15.2906 53.7946Z" fill="#68A99B"/>
<path d="M15.2906 14.1139C15.6388 14.1139 15.9211 13.8335 15.9211 13.4877C15.9211 13.1419 15.6388 12.8616 15.2906 12.8616C14.9423 12.8616 14.66 13.1419 14.66 13.4877C14.66 13.8335 14.9423 14.1139 15.2906 14.1139Z" fill="#68A99B"/>
<path d="M15.2906 15.7039C15.6388 15.7039 15.9211 15.4236 15.9211 15.0778C15.9211 14.732 15.6388 14.4516 15.2906 14.4516C14.9423 14.4516 14.66 14.732 14.66 15.0778C14.66 15.4236 14.9423 15.7039 15.2906 15.7039Z" fill="#68A99B"/>
<path d="M15.9211 16.6678C15.9211 17.0137 15.6389 17.294 15.2906 17.294C14.9422 17.294 14.66 17.0137 14.66 16.6678C14.66 16.3219 14.9422 16.0417 15.2906 16.0417C15.6389 16.0417 15.9211 16.3219 15.9211 16.6678Z" fill="#D30000"/>
<path d="M15.2906 18.97C14.8952 18.97 14.5741 18.6505 14.5741 18.2585C14.5741 17.8666 14.8952 17.5471 15.2906 17.5471C15.6859 17.5471 16.007 17.8666 16.007 18.2585C16.007 18.6505 15.6853 18.97 15.2906 18.97ZM15.2906 17.717C14.99 17.717 14.7459 17.96 14.7459 18.2579C14.7459 18.5557 14.99 18.7987 15.2906 18.7987C15.5912 18.7987 15.8352 18.5557 15.8352 18.2579C15.8352 17.96 15.5912 17.717 15.2906 17.717Z" fill="#68A99B"/>
<path d="M15.2906 20.4741C15.6388 20.4741 15.9211 20.1937 15.9211 19.8479C15.9211 19.5021 15.6388 19.2218 15.2906 19.2218C14.9423 19.2218 14.66 19.5021 14.66 19.8479C14.66 20.1937 14.9423 20.4741 15.2906 20.4741Z" fill="#68A99B"/>
<path d="M15.9211 21.438C15.9211 21.7839 15.6389 22.0641 15.2906 22.0641C14.9422 22.0641 14.66 21.7839 14.66 21.438C14.66 21.0921 14.9422 20.8118 15.2906 20.8118C15.6389 20.8118 15.9211 21.0921 15.9211 21.438Z" fill="#68A99B"/>
<path d="M15.9211 23.028C15.9211 23.3739 15.6389 23.6541 15.2906 23.6541C14.9422 23.6541 14.66 23.3739 14.66 23.028C14.66 22.6821 14.9422 22.4019 15.2906 22.4019C15.6389 22.4019 15.9211 22.6821 15.9211 23.028Z" fill="#D30000"/>
<path d="M15.2906 25.3302C14.8952 25.3302 14.5741 25.0107 14.5741 24.6187C14.5741 24.2268 14.8952 23.9073 15.2906 23.9073C15.6859 23.9073 16.007 24.2261 16.007 24.6187C16.007 25.0113 15.6853 25.3302 15.2906 25.3302ZM15.2906 24.0772C14.99 24.0772 14.7459 24.3202 14.7459 24.6181C14.7459 24.9159 14.99 25.1589 15.2906 25.1589C15.5912 25.1589 15.8352 24.9159 15.8352 24.6181C15.8352 24.3202 15.5912 24.0772 15.2906 24.0772Z" fill="#68A99B"/>
<path d="M15.9211 26.2081C15.9211 26.554 15.6389 26.8342 15.2906 26.8342C14.9422 26.8342 14.66 26.554 14.66 26.2081C14.66 25.8622 14.9422 25.582 15.2906 25.582C15.6389 25.582 15.9211 25.8622 15.9211 26.2081Z" fill="#68A99B"/>
<path d="M15.9212 0.632448C15.923 0.286648 15.6421 0.00490676 15.2939 0.00316253C14.9456 0.0014183 14.6619 0.280332 14.6601 0.626132C14.6584 0.971932 14.9393 1.25367 15.2875 1.25542C15.6357 1.25716 15.9195 0.978249 15.9212 0.632448Z" fill="#68A99B"/>
<path d="M15.3254 2.84424C15.6732 2.82512 15.9394 2.52971 15.9202 2.18444C15.9009 1.83916 15.6034 1.57476 15.2557 1.59389C14.908 1.61301 14.6417 1.90841 14.661 2.25369C14.6803 2.59896 14.9777 2.86336 15.3254 2.84424Z" fill="#68A99B"/>
<path d="M15.3254 4.43456C15.6731 4.41543 15.9394 4.12003 15.9201 3.77475C15.9008 3.42948 15.6034 3.16508 15.2556 3.1842C14.9079 3.20332 14.6417 3.49873 14.6609 3.844C14.6802 4.18928 14.9777 4.45368 15.3254 4.43456Z" fill="#D30000"/>
<path d="M15.2906 6.11085C14.8952 6.11085 14.5741 5.79203 14.5741 5.39943C14.5741 5.00682 14.8952 4.688 15.2906 4.688C15.6859 4.688 16.007 5.00682 16.007 5.39943C16.007 5.79203 15.6853 6.11085 15.2906 6.11085ZM15.2906 4.85791C14.99 4.85791 14.7459 5.10091 14.7459 5.39875C14.7459 5.69659 14.99 5.9396 15.2906 5.9396C15.5912 5.9396 15.8352 5.69659 15.8352 5.39875C15.8352 5.10091 15.5912 4.85791 15.2906 4.85791Z" fill="#68A99B"/>
<path d="M15.9211 6.98948C15.9211 7.33537 15.6389 7.61561 15.2906 7.61561C14.9422 7.61561 14.66 7.33537 14.66 6.98948C14.66 6.64358 14.9422 6.36334 15.2906 6.36334C15.6389 6.36334 15.9211 6.64358 15.9211 6.98948Z" fill="#68A99B"/>
<path d="M15.9211 8.57953C15.9211 8.92543 15.6389 9.20567 15.2906 9.20567C14.9422 9.20567 14.66 8.92543 14.66 8.57953C14.66 8.23364 14.9422 7.9534 15.2906 7.9534C15.6389 7.9534 15.9211 8.23364 15.9211 8.57953Z" fill="#68A99B"/>
<path d="M15.2906 10.7957C15.6388 10.7957 15.9211 10.5154 15.9211 10.1696C15.9211 9.82377 15.6388 9.54344 15.2906 9.54344C14.9423 9.54344 14.66 9.82377 14.66 10.1696C14.66 10.5154 14.9423 10.7957 15.2906 10.7957Z" fill="#D30000"/>
<path d="M15.2906 12.471C14.8952 12.471 14.5741 12.1522 14.5741 11.7596C14.5741 11.367 14.8952 11.0482 15.2906 11.0482C15.6859 11.0482 16.007 11.3677 16.007 11.7596C16.007 12.1515 15.6853 12.471 15.2906 12.471ZM15.2906 11.2181C14.99 11.2181 14.7459 11.4611 14.7459 11.7589C14.7459 12.0568 14.99 12.2998 15.2906 12.2998C15.5912 12.2998 15.8352 12.0568 15.8352 11.7589C15.8352 11.4611 15.5912 11.2181 15.2906 11.2181Z" fill="#68A99B"/>
<path d="M18.2429 57.9975V54.8424C18.2429 54.7463 18.1924 54.6617 18.1168 54.6136C18.0745 54.5865 18.0234 54.571 17.9695 54.571H12.5393C12.4494 54.571 12.3689 54.6143 12.3192 54.6813C12.2858 54.7267 12.2653 54.7822 12.2653 54.8431V57.9981C5.27205 59.3777 0 65.503 0 72.8528C0 81.2186 6.82967 88.0005 15.2544 88.0005C23.6792 88.0005 30.5089 81.2186 30.5089 72.8528C30.5089 65.503 25.2368 59.3777 18.2436 57.9981L18.2429 57.9975Z" fill="#D30000"/>
<path d="M27.8279 72.4412C27.0535 72.4608 26.2784 72.4784 25.5041 72.494C25.8817 72.1847 26.258 71.8746 26.6343 71.5646C26.7474 71.4712 26.7597 71.3081 26.6622 71.2004C26.5641 71.0928 26.3923 71.0813 26.2819 71.1741C25.7406 71.6201 25.198 72.0655 24.6533 72.5103C24.0664 72.5211 23.4802 72.5312 22.8933 72.54C23.5184 72.033 24.1421 71.5254 24.7631 71.0163C24.8762 70.9243 24.8899 70.7611 24.7931 70.6528C24.7467 70.6 24.6806 70.5682 24.609 70.5635C24.5422 70.5567 24.4679 70.5797 24.4134 70.6244C23.6267 71.2688 22.8367 71.9112 22.0432 72.5522C21.4556 72.5597 20.868 72.5664 20.2804 72.5725C21.2061 71.8286 22.1271 71.0813 23.0439 70.332C23.1564 70.2399 23.17 70.0768 23.0739 69.9685C23.0269 69.9157 22.9614 69.8846 22.8892 69.8791C22.8162 69.8751 22.7481 69.8961 22.6949 69.9407C21.6131 70.8241 20.5258 71.7041 19.4324 72.5807C18.2586 72.5901 17.0841 72.5949 15.9102 72.5955C16.7405 71.8036 17.5667 71.0096 18.3888 70.2135C19.8026 70.0781 21.2157 69.9367 22.6274 69.7884C22.7747 69.7729 22.8817 69.6449 22.8653 69.5041C22.8578 69.4351 22.8224 69.3728 22.7658 69.3302C22.7092 69.2875 22.639 69.2679 22.5688 69.276C21.3738 69.4019 20.1775 69.5231 18.9805 69.6395C19.3908 69.2401 19.8005 68.8408 20.2088 68.4407C21.2334 68.3365 22.2573 68.2295 23.2798 68.1185C23.4263 68.1023 23.532 67.9743 23.5163 67.8335C23.5 67.6934 23.3732 67.5966 23.2205 67.6061C22.4134 67.6934 21.6056 67.7794 20.7978 67.8626C21.2048 67.4626 21.6104 67.0619 22.0153 66.6611C22.7181 66.5867 23.4209 66.5109 24.123 66.4337C24.2696 66.4181 24.3745 66.2895 24.3582 66.148C24.3418 66.0093 24.2259 65.9132 24.0623 65.9206C23.5749 65.9748 23.0869 66.0276 22.5995 66.0804C23.1325 65.5503 23.6636 65.0197 24.1925 64.4876C24.2948 64.3854 24.2914 64.2216 24.1864 64.1234C24.0841 64.0273 23.9083 64.0307 23.8108 64.1295C23.2818 64.6609 22.7501 65.1916 22.2177 65.7216C22.2579 65.2491 22.2982 64.776 22.3384 64.3035C22.35 64.162 22.2402 64.0375 22.0937 64.0253C21.9519 64.0131 21.8196 64.1207 21.808 64.2615C21.7494 64.9418 21.6908 65.6228 21.6315 66.3031C21.2273 66.7038 20.8217 67.1032 20.4154 67.5025C20.4856 66.7234 20.5551 65.9443 20.624 65.1645C20.6301 65.0955 20.6076 65.0291 20.5619 64.977C20.5163 64.9242 20.4515 64.8917 20.3806 64.8863C20.3111 64.8816 20.2416 64.9019 20.187 64.9459C20.1318 64.9905 20.0984 65.0528 20.0923 65.1212C20.0037 66.1081 19.9144 67.095 19.8244 68.082C19.4167 68.4813 19.0077 68.88 18.5981 69.278C18.7037 68.1293 18.8094 66.98 18.913 65.8313C18.9253 65.6898 18.8162 65.5646 18.6703 65.5517C18.5994 65.5456 18.5299 65.5666 18.4754 65.6106C18.4215 65.6553 18.3874 65.7175 18.3813 65.7866C18.2565 67.1424 18.1311 68.4989 18.0043 69.8548C17.1829 70.6494 16.3574 71.4428 15.5278 72.2334C15.5278 71.1145 15.5278 69.9956 15.5285 68.8773C16.4331 67.8288 17.3308 66.7776 18.2231 65.7236C18.3152 65.6133 18.2981 65.4508 18.185 65.3615C18.0725 65.2715 17.9034 65.2884 17.81 65.3974C17.0541 66.2895 16.294 67.1796 15.5292 68.0684C15.5292 67.5086 15.5292 66.9488 15.5292 66.3897C16.1822 65.6255 16.8318 64.8599 17.4781 64.0936C17.5231 64.0408 17.5442 63.9732 17.5374 63.9048C17.5306 63.8364 17.4965 63.7742 17.4413 63.7308C17.3288 63.6408 17.1611 63.6557 17.067 63.7667C16.5564 64.3719 16.0438 64.9757 15.5299 65.5795C15.5299 65.0203 15.5299 64.4619 15.5299 63.9028C15.9777 63.3761 16.4242 62.8482 16.8693 62.3202C16.9614 62.2105 16.945 62.0474 16.8318 61.9573C16.7773 61.9133 16.7044 61.8937 16.6382 61.8998C16.568 61.9066 16.504 61.9397 16.4597 61.9925C16.1502 62.3594 15.8407 62.7256 15.5299 63.0912C15.5299 62.3527 15.5299 61.6135 15.5299 60.875C15.5299 60.7328 15.4112 60.6171 15.266 60.6171C15.1208 60.6171 15.0022 60.7322 15.0022 60.875C15.0009 61.6135 15.0002 62.352 14.9988 63.0912C14.6894 62.725 14.3799 62.3587 14.0718 61.9919C14.0274 61.9384 13.9634 61.9052 13.8932 61.8985C13.8223 61.8917 13.7541 61.9113 13.6989 61.956C13.5864 62.046 13.57 62.2092 13.6621 62.3181C14.1058 62.8468 14.5517 63.3748 14.9988 63.9028C14.9981 64.4619 14.9975 65.021 14.9961 65.5795C14.4828 64.9757 13.9709 64.3705 13.461 63.7654C13.416 63.7119 13.3526 63.6787 13.2824 63.6713C13.2108 63.6625 13.1426 63.6841 13.0874 63.7274C12.9743 63.8175 12.9565 63.9799 13.0492 64.0903C13.6948 64.8579 14.3431 65.6248 14.9947 66.3897C14.9941 66.9495 14.9934 67.5093 14.992 68.0691C14.2285 67.179 13.4698 66.2875 12.7145 65.394C12.6212 65.2836 12.4528 65.2681 12.3403 65.3574C12.2851 65.4014 12.2503 65.463 12.2435 65.5314C12.2367 65.5998 12.2571 65.6674 12.3028 65.7202C13.1931 66.7755 14.0888 67.8281 14.9913 68.878C14.99 69.9969 14.9879 71.1152 14.9866 72.2341C14.1576 71.4414 13.3335 70.6474 12.5128 69.8507C12.3887 68.4942 12.2653 67.1377 12.1433 65.7818C12.1297 65.6397 11.9947 65.5375 11.8543 65.5483C11.7077 65.5605 11.5987 65.6857 11.6109 65.8272C11.7132 66.9766 11.8161 68.1253 11.9204 69.2747C11.5114 68.876 11.1031 68.4766 10.6961 68.0765C10.6075 67.0896 10.5202 66.1027 10.433 65.1158C10.4207 64.975 10.3028 64.8694 10.1453 64.8802C10.0744 64.8856 10.0097 64.9181 9.964 64.9709C9.91833 65.023 9.89652 65.0901 9.90197 65.1591C9.96946 65.9382 10.0383 66.718 10.1065 67.4971C9.70088 67.0971 9.29597 66.6963 8.89173 66.2956C8.83379 65.6153 8.77653 64.9344 8.71859 64.2541C8.707 64.114 8.57612 64.0057 8.43161 64.0172C8.28641 64.0293 8.17666 64.1532 8.18825 64.2954C8.22711 64.7678 8.26664 65.241 8.30618 65.7135C7.77448 65.1828 7.24414 64.6514 6.71584 64.1194C6.61768 64.0199 6.44113 64.0172 6.33956 64.1119C6.2339 64.2101 6.23049 64.3739 6.33206 64.4768C6.86035 65.0095 7.39069 65.5415 7.92308 66.0722C7.43432 66.0188 6.94556 65.9646 6.45749 65.9098C6.29389 65.8935 6.18005 65.9978 6.16369 66.1365C6.14733 66.278 6.2523 66.4059 6.39818 66.4222C7.10098 66.5014 7.80447 66.5786 8.50795 66.6544C8.9115 67.0558 9.31642 67.4565 9.72269 67.8572C8.91491 67.7726 8.10713 67.6853 7.29935 67.5966C7.2305 67.5912 7.15824 67.6088 7.10235 67.6515C7.04713 67.6948 7.011 67.7557 7.00351 67.822C6.99533 67.8904 7.01509 67.9581 7.05872 68.0122C7.10371 68.0664 7.16711 68.1009 7.23936 68.109C8.26255 68.2214 9.2871 68.3311 10.3117 68.4367C10.7193 68.8374 11.1276 69.2374 11.5373 69.6368C10.3403 69.5183 9.14395 69.3952 7.94898 69.2672C7.88218 69.2598 7.80651 69.2787 7.7513 69.3214C7.6954 69.3647 7.65995 69.4263 7.65246 69.4947C7.64428 69.563 7.66473 69.63 7.70972 69.6842C7.75471 69.7383 7.81878 69.7722 7.89036 69.7796C9.30278 69.9306 10.7159 70.0748 12.1304 70.2135C12.9504 71.0102 13.7752 71.8056 14.6035 72.5983C13.4289 72.5955 12.2544 72.5888 11.0806 72.5779C9.98854 71.7 8.90264 70.818 7.82287 69.9326C7.76834 69.8879 7.69745 69.8676 7.62792 69.871C7.55566 69.8758 7.49022 69.9076 7.4425 69.9604C7.34707 70.068 7.36002 70.2318 7.4725 70.3239C8.38798 71.0745 9.30824 71.8232 10.2319 72.5691C9.6443 72.5624 9.0567 72.5549 8.4691 72.5461C7.677 71.9044 6.88762 71.2607 6.10097 70.6149C5.98918 70.5222 5.81876 70.5344 5.71992 70.6427C5.6238 70.7503 5.63675 70.9134 5.74923 71.0055C6.37023 71.5159 6.99328 72.0249 7.61769 72.5333C7.03077 72.5231 6.44385 72.5123 5.85762 72.5008C5.31364 72.0554 4.77171 71.6093 4.23047 71.1619C4.11867 71.0685 3.94757 71.0793 3.84941 71.1876C3.75261 71.2945 3.76488 71.457 3.87668 71.5511C4.25228 71.8618 4.62924 72.1725 5.00621 72.4825C4.23115 72.4656 3.45609 72.4466 2.68103 72.4256C2.53106 72.4216 2.40699 72.5339 2.4029 72.6761C2.39881 72.8182 2.51674 72.9374 2.66671 72.9414C3.44245 72.9624 4.21888 72.9814 4.99462 72.9983C4.60334 73.2914 4.21138 73.5845 3.81874 73.8769C3.70149 73.9642 3.68104 74.1267 3.77443 74.2397C3.82487 74.3 3.89986 74.3359 3.98097 74.3372C4.04437 74.3386 4.10708 74.3189 4.15548 74.2824C4.72059 73.8614 5.28501 73.4396 5.84739 73.0166C6.43499 73.0288 7.02191 73.0396 7.60951 73.0491C6.96738 73.5358 6.32252 74.0211 5.67629 74.5058C5.55836 74.5938 5.53859 74.7562 5.63198 74.8679C5.68311 74.9281 5.75877 74.964 5.84057 74.9661C5.90397 74.9674 5.966 74.9471 6.0144 74.9106C6.83309 74.2966 7.64905 73.6806 8.4616 73.0626C9.04988 73.0714 9.63817 73.0789 10.2258 73.0856C9.2837 73.8106 8.33754 74.5322 7.38661 75.251C7.26936 75.339 7.25027 75.5022 7.34434 75.6145C7.39547 75.6741 7.47113 75.7093 7.55225 75.7106C7.61565 75.712 7.67768 75.6917 7.72676 75.6538C8.84879 74.8043 9.96537 73.9507 11.0758 73.0937C12.2517 73.1046 13.4269 73.112 14.6028 73.1141C13.7698 73.9033 12.9327 74.6906 12.0915 75.4751C10.6593 75.5922 9.22575 75.7032 7.79152 75.8081C7.64155 75.819 7.52976 75.9435 7.54134 76.0843C7.55157 76.2177 7.66677 76.3205 7.80856 76.3226C9.0342 76.2332 10.2585 76.1398 11.4828 76.0417C11.0608 76.4336 10.6382 76.8255 10.2142 77.2161C9.16781 77.2993 8.12145 77.3792 7.07372 77.4557C7.00078 77.4611 6.93466 77.4929 6.88694 77.5451C6.83922 77.5979 6.81673 77.6649 6.82286 77.7319C6.83309 77.8652 6.94897 77.9681 7.09076 77.9708C7.92717 77.9099 8.76358 77.8476 9.59931 77.782C9.17463 78.1719 8.74927 78.5618 8.32322 78.9503C7.5986 79.0051 6.87467 79.0579 6.14937 79.1094C5.9994 79.1202 5.88556 79.2441 5.89715 79.3869C5.90874 79.5196 6.02463 79.6218 6.16573 79.6245C6.67903 79.5886 7.19165 79.5514 7.70426 79.5142C7.13916 80.0273 6.57269 80.5397 6.00417 81.0514C5.95032 81.0988 5.92033 81.1631 5.91897 81.2321C5.9176 81.3012 5.94487 81.3662 5.99463 81.4142C6.04439 81.4643 6.11529 81.4934 6.18891 81.4948C6.26253 81.4961 6.3341 81.4697 6.38523 81.423C6.95374 80.9113 7.52021 80.3989 8.08532 79.8851C8.02942 80.3569 7.97352 80.828 7.91763 81.2992C7.91013 81.3675 7.93058 81.4345 7.97625 81.4887C8.0226 81.5428 8.08804 81.5767 8.16303 81.5841C8.17121 81.5841 8.17939 81.5855 8.18757 81.5855C8.33004 81.5875 8.44933 81.4894 8.46569 81.356C8.54545 80.6771 8.6252 79.9988 8.70496 79.3206C9.13168 78.9314 9.55705 78.5415 9.98105 78.1509C9.89243 78.9286 9.80313 79.7057 9.71383 80.4835C9.69815 80.6243 9.8079 80.7515 9.9606 80.7678C9.96878 80.7678 9.97696 80.7685 9.98514 80.7691C10.1269 80.7705 10.2462 80.6717 10.2619 80.539C10.3744 79.5541 10.4862 78.5692 10.5973 77.5843C11.0213 77.1931 11.4439 76.8011 11.8652 76.4092C11.7411 77.5566 11.6164 78.7039 11.4916 79.8513C11.4841 79.9196 11.5053 79.9873 11.5523 80.0408C11.5987 80.0943 11.6648 80.1274 11.7398 80.1342C11.7479 80.1342 11.7554 80.1349 11.7636 80.1356C11.9061 80.1369 12.024 80.0374 12.0397 79.9041C12.1863 78.5496 12.3314 77.1958 12.4753 75.8413C13.3165 75.0554 14.1536 74.2675 14.9866 73.4776C14.9852 74.5965 14.9832 75.7154 14.9818 76.8336C14.0615 77.8808 13.1351 78.9259 12.2033 79.9677C12.1556 80.0198 12.1331 80.0868 12.1392 80.1559C12.1454 80.2249 12.1801 80.2872 12.236 80.3312C12.2844 80.3698 12.3471 80.3914 12.4112 80.3921C12.4937 80.3921 12.5714 80.3589 12.6232 80.3C13.4133 79.416 14.1992 78.5306 14.9804 77.6432C14.9797 78.203 14.9791 78.7621 14.9777 79.3219C14.3056 80.0855 13.6307 80.8477 12.9518 81.6085C12.855 81.7175 12.8707 81.8806 12.9872 81.9713C13.0363 82.0099 13.0983 82.0316 13.1624 82.0316C13.2456 82.0316 13.324 81.9977 13.3758 81.9388C13.9116 81.3377 14.4446 80.736 14.9763 80.1335C14.9757 80.6927 14.975 81.2518 14.9743 81.8102C14.5087 82.3368 14.0418 82.8628 13.5728 83.3874C13.476 83.4964 13.4917 83.6588 13.6103 83.7509C13.66 83.7888 13.7221 83.8098 13.7855 83.8098C13.8693 83.8098 13.947 83.7759 13.9995 83.7171C14.3247 83.3522 14.6491 82.9867 14.9736 82.6211C14.9722 83.3596 14.9716 84.0988 14.9702 84.8373C14.9702 84.9795 15.0943 85.0952 15.2476 85.0952C15.401 85.0952 15.5251 84.9795 15.5251 84.838C15.5251 84.0995 15.5251 83.361 15.5251 82.6218C15.8482 82.988 16.1727 83.3536 16.4971 83.7184C16.5496 83.778 16.628 83.8125 16.7112 83.8125C16.7759 83.8125 16.8387 83.7908 16.8864 83.7536C17.0043 83.6629 17.0207 83.5004 16.9239 83.3901C16.4562 82.8648 15.99 82.3382 15.5258 81.8116C15.5258 81.2525 15.5258 80.694 15.5258 80.1349C16.0561 80.7387 16.5885 81.3411 17.1229 81.9436C17.1761 82.0025 17.2538 82.0363 17.3356 82.0363C17.3997 82.0363 17.4617 82.0146 17.5115 81.9767C17.568 81.9321 17.6035 81.8698 17.6103 81.8014C17.6171 81.7331 17.5946 81.666 17.5476 81.6139C16.8707 80.8524 16.1972 80.0889 15.5264 79.3246C15.5264 78.7648 15.5264 78.205 15.5264 77.6459C16.3063 78.5354 17.0902 79.4221 17.8789 80.3075C17.9321 80.3664 18.0084 80.3996 18.0909 80.3996C18.155 80.3996 18.2184 80.3779 18.2661 80.34C18.3826 80.2486 18.3976 80.0861 18.3008 79.9765C17.3704 78.9327 16.446 77.8862 15.5271 76.8363C15.5271 75.7174 15.5271 74.5992 15.5278 73.4803C16.3594 74.2716 17.1945 75.0601 18.0343 75.8474C18.1761 77.2025 18.3193 78.5577 18.4638 79.9122C18.4788 80.0449 18.5974 80.1444 18.7392 80.143C18.748 80.143 18.7562 80.1423 18.7651 80.1417C18.838 80.1349 18.9034 80.1017 18.9505 80.0482C18.9968 79.9948 19.0186 79.9278 19.0111 79.8587C18.8878 78.7114 18.7651 77.564 18.643 76.416C19.0636 76.8093 19.4856 77.2012 19.9089 77.5931C20.018 78.578 20.1284 79.5629 20.2388 80.5478C20.2525 80.6811 20.3718 80.7806 20.5149 80.7793C20.5238 80.7793 20.5326 80.7786 20.5415 80.7779C20.6915 80.7624 20.8019 80.6351 20.7862 80.4943C20.6983 79.7166 20.6103 78.9388 20.5224 78.161C20.9464 78.5523 21.3711 78.9429 21.7965 79.3328C21.8748 80.0117 21.9532 80.6906 22.0316 81.3696C22.0473 81.5016 22.1666 81.6004 22.3091 81.5983C22.3179 81.5983 22.3268 81.5977 22.335 81.597C22.4086 81.5895 22.474 81.5557 22.5204 81.5016C22.5661 81.4481 22.5872 81.3811 22.5797 81.312C22.5245 80.8402 22.4693 80.3691 22.4147 79.8973C22.9785 80.4117 23.5436 80.9248 24.11 81.4372C24.1619 81.4853 24.2341 81.5124 24.3071 81.511C24.3807 81.5097 24.4516 81.4806 24.5 81.4325C24.5518 81.3831 24.579 81.3174 24.5777 81.2484C24.5763 81.1793 24.5463 81.115 24.4938 81.0677C23.9267 80.5552 23.3609 80.0421 22.7972 79.5277C23.3016 79.5656 23.8053 79.6028 24.3105 79.6394C24.3186 79.6394 24.3268 79.6394 24.335 79.6394C24.4768 79.6367 24.5927 79.5352 24.6036 79.4011C24.6152 79.2597 24.502 79.1358 24.352 79.1243C23.6274 79.0721 22.9035 79.018 22.1796 78.9618C21.7542 78.5719 21.3295 78.182 20.9055 77.7914C21.7331 77.8571 22.5606 77.9214 23.3888 77.983C23.397 77.983 23.4052 77.983 23.4134 77.9837C23.5565 77.9817 23.6711 77.8788 23.682 77.7461C23.6935 77.6039 23.5811 77.4801 23.4318 77.4692C22.3847 77.3914 21.3384 77.3095 20.2927 77.2249C19.8694 76.833 19.4474 76.441 19.0261 76.0477C20.2416 76.1479 21.4577 76.2434 22.6745 76.3341C22.6826 76.3341 22.6908 76.3341 22.6983 76.3348C22.8387 76.3327 22.9539 76.2305 22.9662 76.0972C22.9778 75.955 22.866 75.8311 22.716 75.8196C21.2825 75.7127 19.8496 75.599 18.4181 75.4792C17.5783 74.6926 16.7425 73.9047 15.9109 73.1141C17.0868 73.1141 18.262 73.1086 19.4379 73.0992C20.5463 73.9581 21.6601 74.8131 22.7808 75.6646C22.8306 75.7025 22.8926 75.7228 22.956 75.7215C23.0371 75.7201 23.1128 75.6856 23.1653 75.624C23.2586 75.513 23.2396 75.3505 23.123 75.2625C22.1741 74.5416 21.2286 73.818 20.2879 73.0917C20.8762 73.0863 21.4638 73.0795 22.0521 73.0714C22.8633 73.6908 23.6772 74.3081 24.4945 74.9227C24.5436 74.96 24.6056 74.9803 24.669 74.9789C24.7522 74.9776 24.8278 74.941 24.8776 74.8808C24.9703 74.7691 24.9506 74.6066 24.834 74.5186C24.1884 74.0333 23.5456 73.5466 22.9042 73.0585C23.4911 73.0497 24.0787 73.0396 24.6656 73.0288C25.2273 73.4525 25.7897 73.8749 26.3541 74.2966C26.4032 74.3338 26.4659 74.3535 26.5293 74.3521C26.6097 74.3501 26.6854 74.3149 26.7372 74.2533C26.7815 74.1991 26.802 74.1314 26.7931 74.0631C26.7842 73.9947 26.7481 73.9338 26.6915 73.8918C26.2996 73.5987 25.9083 73.3056 25.5177 73.0118C26.2934 72.9963 27.0692 72.9787 27.8449 72.959C27.9949 72.955 28.1135 72.8365 28.1094 72.6944C28.1053 72.5522 27.9813 72.4399 27.832 72.4432L27.8279 72.4412Z" fill="white"/>
<path d="M13.9538 56.314C13.9538 56.8772 13.72 57.3334 13.4317 57.3334C13.1433 57.3334 12.9095 56.8772 12.9095 56.314C12.9095 55.7508 13.1433 55.2946 13.4317 55.2946C13.72 55.2946 13.9538 55.7508 13.9538 56.314Z" fill="white"/>
<path d="M15.7759 56.314C15.7759 56.8772 15.5421 57.3334 15.2538 57.3334C14.9654 57.3334 14.7316 56.8772 14.7316 56.314C14.7316 55.7508 14.9654 55.2946 15.2538 55.2946C15.5421 55.2946 15.7759 55.7508 15.7759 56.314Z" fill="white"/>
<path d="M17.5987 56.314C17.5987 56.8772 17.3649 57.3334 17.0766 57.3334C16.7882 57.3334 16.5544 56.8772 16.5544 56.314C16.5544 55.7508 16.7882 55.2946 17.0766 55.2946C17.3649 55.2946 17.5987 55.7508 17.5987 56.314Z" fill="white"/>
</svg>
