<svg width="27" height="73" viewBox="0 0 27 73" fill="none" xmlns="http://www.w3.org/2000/svg">
<path d="M15.961 44.927L19.2384 39.499C19.312 39.3775 19.3396 39.2401 19.3258 39.1071C19.3098 38.9552 19.2392 38.8099 19.1176 38.7015L17.078 36.8815C16.9069 36.729 16.6863 36.6885 16.4904 36.7398C16.2851 36.7933 16.1059 36.9466 16.0389 37.1751L14.1115 43.7317L14.7239 36.6545C14.7399 36.4694 14.6744 36.2973 14.5586 36.1715C14.4421 36.0457 14.2754 35.9661 14.0882 35.9661H12.1062C11.9191 35.9661 11.7523 36.0457 11.6358 36.1715C11.5193 36.2973 11.4545 36.4694 11.4705 36.6545L12.0836 43.7346L10.1548 37.1751C10.1111 37.0261 10.0201 36.9097 9.90574 36.8316C9.67565 36.674 9.34871 36.6733 9.1157 36.8815L7.07615 38.7015C6.96256 38.8027 6.89339 38.9372 6.87155 39.0789C6.85043 39.2206 6.87664 39.3688 6.95528 39.499L10.2349 44.9291L4.39948 39.5525C4.24584 39.4108 4.04633 39.3616 3.86138 39.392C3.65749 39.4252 3.46963 39.5561 3.37862 39.7672L1.80727 43.4028C1.73955 43.5589 1.74028 43.7281 1.79635 43.8756C1.85314 44.026 1.96746 44.1547 2.12547 44.2278L11.5921 48.5899H14.6023L24.0697 44.2278C24.2262 44.1555 24.3398 44.0282 24.3974 43.8792C24.4549 43.7303 24.4556 43.5604 24.3879 43.4028L22.8158 39.7665C22.7321 39.572 22.5668 39.4462 22.3818 39.4014C22.1838 39.3529 21.9624 39.3978 21.795 39.5525L15.9625 44.927H15.961Z" fill="#D30000"/>
<path d="M0.543198 55.5371H26.4471L26.9903 47.2942H0L0.543198 55.5371Z" fill="#68A99B"/>
<path d="M1.32741 56.4235L1.77595 72.68H25.2143L25.6629 56.4235H1.32741Z" fill="#D30000"/>
<path d="M13.012 1.27903C13.3639 1.27903 13.6492 0.995776 13.6492 0.64636C13.6492 0.296944 13.3639 0.0136871 13.012 0.0136871C12.6601 0.0136871 12.3749 0.296944 12.3749 0.64636C12.3749 0.995776 12.6601 1.27903 13.012 1.27903Z" fill="#68A99B"/>
<path d="M13.012 3.90806C13.3953 3.90806 13.706 3.59956 13.706 3.21899C13.706 2.83843 13.3953 2.52992 13.012 2.52992C12.6288 2.52992 12.3181 2.83843 12.3181 3.21899C12.3181 3.59956 12.6288 3.90806 13.012 3.90806Z" fill="#68A99B"/>
<path d="M13.762 5.79089C13.762 6.20231 13.4263 6.53564 13.012 6.53564C12.5977 6.53564 12.262 6.20231 12.262 5.79089C12.262 5.37947 12.5977 5.04614 13.012 5.04614C13.4263 5.04614 13.762 5.37947 13.762 5.79089Z" fill="#68A99B"/>
<path d="M13.012 9.16322C13.4572 9.16322 13.8181 8.80486 13.8181 8.3628C13.8181 7.92074 13.4572 7.56238 13.012 7.56238C12.5669 7.56238 12.206 7.92074 12.206 8.3628C12.206 8.80486 12.5669 9.16322 13.012 9.16322Z" fill="#68A99B"/>
<path d="M13.8749 10.9354C13.8749 11.4083 13.489 11.7915 13.0127 11.7915C12.5365 11.7915 12.1506 11.4083 12.1506 10.9354C12.1506 10.4625 12.5365 10.0793 13.0127 10.0793C13.489 10.0793 13.8749 10.4625 13.8749 10.9354Z" fill="#68A99B"/>
<path d="M13.9309 13.5073C13.9309 14.0113 13.5195 14.4198 13.012 14.4198C12.5045 14.4198 12.0931 14.0113 12.0931 13.5073C12.0931 13.0034 12.5045 12.5948 13.012 12.5948C13.5195 12.5948 13.9309 13.0034 13.9309 13.5073Z" fill="#68A99B"/>
<path d="M13.012 17.2282C12.3742 17.2282 11.855 16.7126 11.855 16.0792C11.855 15.4458 12.3742 14.9303 13.012 14.9303C13.6499 14.9303 14.169 15.4458 14.169 16.0792C14.169 16.7126 13.6499 17.2282 13.012 17.2282ZM13.012 15.2918C12.5744 15.2918 12.2191 15.6447 12.2191 16.0792C12.2191 16.5138 12.5744 16.8666 13.012 16.8666C13.4496 16.8666 13.805 16.5138 13.805 16.0792C13.805 15.6447 13.4496 15.2918 13.012 15.2918Z" fill="#D30000"/>
<path d="M13.012 18.7784C13.3639 18.7784 13.6492 18.4951 13.6492 18.1457C13.6492 17.7963 13.3639 17.5131 13.012 17.5131C12.6601 17.5131 12.3749 17.7963 12.3749 18.1457C12.3749 18.4951 12.6601 18.7784 13.012 18.7784Z" fill="#68A99B"/>
<path d="M13.012 21.4067C13.3953 21.4067 13.706 21.0982 13.706 20.7176C13.706 20.3371 13.3953 20.0286 13.012 20.0286C12.6288 20.0286 12.3181 20.3371 12.3181 20.7176C12.3181 21.0982 12.6288 21.4067 13.012 21.4067Z" fill="#68A99B"/>
<path d="M13.762 23.2903C13.762 23.7017 13.4263 24.035 13.012 24.035C12.5977 24.035 12.262 23.7017 12.262 23.2903C12.262 22.8788 12.5977 22.5455 13.012 22.5455C13.4263 22.5455 13.762 22.8788 13.762 23.2903Z" fill="#68A99B"/>
<path d="M13.012 26.6626C13.4572 26.6626 13.8181 26.3042 13.8181 25.8622C13.8181 25.4201 13.4572 25.0618 13.012 25.0618C12.5669 25.0618 12.206 25.4201 12.206 25.8622C12.206 26.3042 12.5669 26.6626 13.012 26.6626Z" fill="#68A99B"/>
<path d="M13.012 29.2902C13.4882 29.2902 13.8742 28.9069 13.8742 28.4341C13.8742 27.9613 13.4882 27.578 13.012 27.578C12.5359 27.578 12.1499 27.9613 12.1499 28.4341C12.1499 28.9069 12.5359 29.2902 13.012 29.2902Z" fill="#68A99B"/>
<path d="M13.012 31.9192C13.5195 31.9192 13.9309 31.5107 13.9309 31.0067C13.9309 30.5027 13.5195 30.0942 13.012 30.0942C12.5045 30.0942 12.0931 30.5027 12.0931 31.0067C12.0931 31.5107 12.5045 31.9192 13.012 31.9192Z" fill="#68A99B"/>
<path d="M13.012 34.7276C12.3742 34.7276 11.855 34.212 11.855 33.5786C11.855 32.9452 12.3742 32.4297 13.012 32.4297C13.6499 32.4297 14.169 32.9452 14.169 33.5786C14.169 34.212 13.6499 34.7276 13.012 34.7276ZM13.012 32.7912C12.5744 32.7912 12.2191 33.1441 12.2191 33.5786C12.2191 34.0132 12.5744 34.366 13.012 34.366C13.4496 34.366 13.805 34.0132 13.805 33.5786C13.805 33.1441 13.4496 32.7912 13.012 32.7912Z" fill="#D30000"/>
</svg>
