<svg width="21" height="52" viewBox="0 0 21 52" fill="none" xmlns="http://www.w3.org/2000/svg">
<path d="M7.57168 20.3218H6.84354C6.84354 19.0246 6.51004 18.3898 6.15688 17.7174C5.77898 16.9972 5.38724 16.2532 5.38724 14.7781C5.38724 13.3031 5.77825 12.5591 6.15688 11.8389C6.51004 11.1665 6.84354 10.5316 6.84354 9.23448C6.84354 7.93732 6.51004 7.30393 6.15688 6.63149C5.77898 5.91205 5.38724 5.16803 5.38724 3.69444C5.38724 2.22085 5.77825 1.47611 6.15688 0.756669C6.51004 0.0849511 6.84354 -0.549889 6.84354 -1.84705C6.84354 -3.14421 6.51004 -3.77761 6.15688 -4.44932C5.77898 -5.16876 5.38724 -5.91279 5.38724 -7.38637C5.38724 -8.85996 5.77825 -9.60326 6.15688 -10.3227C6.51004 -10.9944 6.84354 -11.6285 6.84354 -12.9242C6.84354 -14.22 6.51004 -14.8541 6.15688 -15.5258C5.77898 -16.2452 5.38724 -16.9885 5.38724 -18.4621C5.38724 -19.9357 5.77825 -20.679 6.15688 -21.3984C6.51004 -22.0702 6.84354 -22.7043 6.84354 -24H7.57168C7.57168 -22.5264 7.18066 -21.7831 6.80203 -21.0637C6.44887 -20.392 6.11539 -19.7578 6.11539 -18.4621C6.11539 -17.1664 6.44887 -16.5323 6.80203 -15.8606C7.18066 -15.1411 7.57168 -14.3971 7.57168 -12.9242C7.57168 -11.4514 7.18066 -10.7074 6.80203 -9.98792C6.44887 -9.31621 6.11539 -8.68209 6.11539 -7.38637C6.11539 -6.09066 6.44887 -5.45582 6.80203 -4.7841C7.18066 -4.06466 7.57168 -3.32064 7.57168 -1.84705C7.57168 -0.373464 7.18066 0.371282 6.80203 1.09072C6.44887 1.76244 6.11539 2.39728 6.11539 3.69444C6.11539 4.9916 6.44887 5.625 6.80203 6.29671C7.18066 7.01615 7.57168 7.7609 7.57168 9.23376C7.57168 10.7066 7.18066 11.4521 6.80203 12.173C6.44887 12.8454 6.11539 13.4803 6.11539 14.7774C6.11539 16.0746 6.44887 16.7094 6.80203 17.3819C7.18066 18.102 7.57168 18.8468 7.57168 20.3218Z" fill="#D30000"/>
<path d="M20.6798 49.3293L12.0148 22.974C10.959 19.7636 7.47847 18.0066 4.24549 19.055C1.01251 20.1034 -0.749612 23.5669 0.306203 26.77C0.488241 27.3268 0.750383 27.8546 1.07805 28.339C1.64601 29.1561 2.76735 29.3585 3.59016 28.8018C4.41297 28.2378 4.62413 27.1243 4.05618 26.3073C3.91783 26.112 3.8086 25.8879 3.73579 25.6565C3.2989 24.3333 4.02705 22.9017 5.36685 22.4678C6.70664 22.034 8.14837 22.7571 8.58526 24.0875L17.243 50.4428C17.5561 51.3828 18.5755 51.8962 19.522 51.5925C20.2866 51.3394 20.7672 50.638 20.7672 49.8788C20.7672 49.6981 20.7381 49.5101 20.6798 49.3293ZM0.24795 25.0708C0.204261 24.5141 0.226114 23.9718 0.313492 23.4512C1.17271 24.3767 2.27949 24.7888 3.39356 24.5936C3.36443 24.9551 3.40084 25.3456 3.53191 25.7288L3.59744 25.924C2.41784 26.1699 1.23823 25.859 0.24795 25.0708ZM5.27946 22.2003C4.8717 22.3377 4.51491 22.5474 4.22365 22.8077C3.43725 21.9328 3.16783 20.8482 3.43725 19.7275C3.72851 19.5901 4.02705 19.4672 4.34743 19.3659C4.55859 19.2936 4.76976 19.2358 4.98821 19.1924C4.52947 20.2553 4.68966 21.3254 5.41781 22.1641C5.37412 22.1786 5.32315 22.1858 5.27946 22.2003ZM8.62895 23.7187C8.41779 23.2487 8.09012 22.8727 7.7042 22.6124C8.15565 21.4772 8.97846 20.6747 10.0343 20.3204C10.3838 20.6602 10.6969 21.0434 10.9736 21.47C9.85224 21.7159 9.00759 22.5184 8.62895 23.7187ZM10.0488 27.6449L9.57555 26.2133C10.3547 25.4324 11.3668 25.0708 12.4517 25.1937L12.9177 26.6109C11.8037 26.3796 10.777 26.7483 10.0488 27.6449ZM11.8328 33.0823L11.3595 31.6434C12.1459 30.8625 13.1508 30.5082 14.2357 30.6311L14.7017 32.0411C13.5876 31.8097 12.5609 32.1785 11.8328 33.0823ZM13.6168 38.5124L13.1507 37.0808C13.9299 36.2999 14.9347 35.9383 16.0269 36.0613L16.4857 37.4784C15.3789 37.2398 14.3449 37.6158 13.6168 38.5124ZM15.408 43.9498L14.9347 42.5109C15.7138 41.73 16.7187 41.3757 17.8109 41.4914L18.2769 42.9086C17.1629 42.6772 16.1289 43.046 15.408 43.9498ZM17.192 49.3799L16.7187 47.9483C17.5051 47.1674 18.5099 46.8059 19.5949 46.9288L20.0609 48.3387C18.9468 48.1074 17.9201 48.4833 17.192 49.3799Z" fill="#D30000"/>
<path d="M10.9736 21.47C9.85224 21.7159 9.00758 22.5184 8.62895 23.7187C8.41778 23.2487 8.09011 22.8727 7.70419 22.6124C8.15565 21.4772 8.97845 20.6747 10.0343 20.3204C10.3838 20.6602 10.6969 21.0434 10.9736 21.47Z" fill="#68A99B"/>
<path d="M12.9177 26.6109C11.8037 26.3796 10.777 26.7483 10.0488 27.6449L9.57553 26.2133C10.3547 25.4324 11.3668 25.0708 12.4517 25.1938L12.9177 26.6109Z" fill="#68A99B"/>
<path d="M5.41782 22.1642C5.37413 22.1786 5.32316 22.1858 5.27947 22.2003C4.8717 22.3377 4.51491 22.5474 4.22365 22.8077C3.43725 21.9328 3.16784 20.8482 3.43725 19.7275C3.72851 19.5901 4.02705 19.4672 4.34744 19.3659C4.5586 19.2936 4.76977 19.2358 4.98821 19.1924C4.52948 20.2553 4.68967 21.3254 5.41782 22.1642Z" fill="#68A99B"/>
<path d="M3.59744 25.924C2.41783 26.1699 1.23823 25.859 0.247947 25.0708C0.204258 24.5141 0.226111 23.9718 0.313489 23.4512C1.1727 24.3767 2.27949 24.7888 3.39356 24.5936C3.36443 24.9551 3.40084 25.3456 3.53191 25.7288L3.59744 25.924Z" fill="#68A99B"/>
<path d="M14.7017 32.0411C13.5876 31.8097 12.5609 32.1785 11.8328 33.0823L11.3595 31.6434C12.1459 30.8625 13.1507 30.5082 14.2357 30.6311L14.7017 32.0411Z" fill="#68A99B"/>
<path d="M16.4857 37.4784C15.3789 37.2398 14.3449 37.6158 13.6168 38.5124L13.1508 37.0808C13.9299 36.2999 14.9347 35.9383 16.027 36.0613L16.4857 37.4784Z" fill="#68A99B"/>
<path d="M18.2769 42.9086C17.1629 42.6772 16.1289 43.046 15.408 43.9498L14.9347 42.5109C15.7138 41.73 16.7187 41.3757 17.8109 41.4914L18.2769 42.9086Z" fill="#68A99B"/>
<path d="M20.0609 48.3387C18.9468 48.1074 17.9201 48.4833 17.192 49.3799L16.7187 47.9483C17.5051 47.1674 18.5099 46.8058 19.5949 46.9288L20.0609 48.3387Z" fill="#68A99B"/>
</svg>
