<svg width="23" height="59" viewBox="0 0 23 59" fill="none" xmlns="http://www.w3.org/2000/svg">
<path d="M10.7093 15.5171C10.7093 15.2643 10.9154 15.0591 11.17 15.0591C11.4245 15.0591 11.6307 15.2643 11.6307 15.5171C11.6307 15.7698 11.4245 15.9751 11.17 15.9751C10.9154 15.9751 10.7093 15.7698 10.7093 15.5171Z" fill="#68A99B"/>
<path d="M11.1705 14.155C11.4477 14.155 11.6723 13.9319 11.6723 13.6566C11.6723 13.3814 11.4477 13.1583 11.1705 13.1583C10.8934 13.1583 10.6687 13.3814 10.6687 13.6566C10.6687 13.9319 10.8934 14.155 11.1705 14.155Z" fill="#68A99B"/>
<path d="M11.1705 12.3348C11.4701 12.3348 11.7129 12.0937 11.7129 11.7962C11.7129 11.4987 11.4701 11.2576 11.1705 11.2576C10.8709 11.2576 10.6281 11.4987 10.6281 11.7962C10.6281 12.0937 10.8709 12.3348 11.1705 12.3348Z" fill="#68A99B"/>
<path d="M10.5874 9.93627C10.5874 9.61628 10.8482 9.3573 11.1705 9.3573C11.4927 9.3573 11.7535 9.61628 11.7535 9.93627C11.7535 10.2562 11.4927 10.5152 11.1705 10.5152C10.8482 10.5152 10.5874 10.2557 10.5874 9.93627Z" fill="#D30000"/>
<path d="M10.5469 8.07584C10.5469 7.73363 10.8259 7.45656 11.1705 7.45656C11.5151 7.45656 11.7942 7.73363 11.7942 8.07584C11.7942 8.41805 11.5151 8.69513 11.1705 8.69513C10.8259 8.69513 10.5469 8.41805 10.5469 8.07584Z" fill="#68A99B"/>
<path d="M10.5057 6.21591C10.5057 5.85147 10.803 5.5563 11.17 5.5563C11.537 5.5563 11.8342 5.85147 11.8342 6.21591C11.8342 6.58035 11.537 6.87552 11.17 6.87552C10.803 6.87552 10.5057 6.58035 10.5057 6.21591Z" fill="#68A99B"/>
<path d="M10.4651 4.35546C10.4651 3.96879 10.7806 3.65553 11.17 3.65553C11.5594 3.65553 11.8748 3.96879 11.8748 4.35546C11.8748 4.74212 11.5594 5.05539 11.17 5.05539C10.7806 5.05539 10.4651 4.74212 10.4651 4.35546Z" fill="#68A99B"/>
<path d="M10.7093 2.86103C10.7093 2.60825 10.9154 2.40355 11.17 2.40355C11.4245 2.40355 11.6307 2.60825 11.6307 2.86103C11.6307 3.11381 11.4245 3.31904 11.17 3.31904C10.9154 3.31904 10.7093 3.11381 10.7093 2.86103Z" fill="#D30000"/>
<path d="M10.6687 1.00057C10.6687 0.725558 10.893 0.502243 11.1705 0.502243C11.448 0.502243 11.6723 0.725041 11.6723 1.00057C11.6723 1.27609 11.448 1.49889 11.1705 1.49889C10.893 1.49889 10.6687 1.27609 10.6687 1.00057Z" fill="#68A99B"/>
<path d="M17.662 47.6811H20.7912C19.0645 45.2179 17.3315 42.2538 15.7031 38.9186H17.8843C16.2367 36.5681 14.5802 33.5673 13.1159 30.14C12.4657 28.6187 11.8977 27.1087 11.4058 25.6334L11.1705 24.7991L10.9352 25.6334C10.4427 27.1082 9.87529 28.6187 9.2251 30.14C7.7602 33.5673 6.10425 36.5686 4.45612 38.9186H6.63732C5.00949 42.2538 3.27649 45.2179 1.54923 47.6811H4.6784C3.15624 50.5739 1.5763 53.1813 0 55.4289H9.63948C9.71652 55.4289 9.78523 55.4625 9.83261 55.5147C9.87998 55.5674 9.90549 55.6388 9.89664 55.7153L9.64624 57.8983C9.64624 57.9582 9.66394 58.0141 9.69413 58.0611C9.74827 58.1448 9.84302 58.2007 9.95078 58.2007H12.3897C12.474 58.2007 12.55 58.1671 12.6052 58.1123C12.6604 58.0575 12.6942 57.982 12.6942 57.8983L12.4438 55.7153C12.4334 55.6227 12.473 55.5374 12.5401 55.4842C12.5838 55.4496 12.6395 55.4289 12.701 55.4289H22.3405C20.7647 53.1813 19.1842 50.5739 17.662 47.6811Z" fill="#68A99B"/>
<path d="M18.535 23.3181L12.6937 22.6461L14.8535 19.6608L11.8472 21.805L11.1705 16.0051L10.4932 21.805L7.48689 19.6608L9.64675 22.6461L3.80539 23.3181L9.64675 23.9906L7.48689 26.9754L10.4932 24.8312L11.1705 30.6317L11.8472 24.8312L14.8535 26.9754L12.6937 23.9906L18.535 23.3181Z" fill="#D30000"/>
<path d="M9.54317 37.6444C10.2619 37.6444 10.8446 37.0658 10.8446 36.352C10.8446 35.6383 10.2619 35.0597 9.54317 35.0597C8.8244 35.0597 8.24173 35.6383 8.24173 36.352C8.24173 37.0658 8.8244 37.6444 9.54317 37.6444Z" fill="#D30000"/>
<path d="M13.9904 44.107C14.7092 44.107 15.2919 43.5285 15.2919 42.8147C15.2919 42.101 14.7092 41.5224 13.9904 41.5224C13.2717 41.5224 12.689 42.101 12.689 42.8147C12.689 43.5285 13.2717 44.107 13.9904 44.107Z" fill="#D30000"/>
<path d="M7.15684 49.708C7.87561 49.708 8.45828 49.1294 8.45828 48.4157C8.45828 47.7019 7.87561 47.1234 7.15684 47.1234C6.43808 47.1234 5.85541 47.7019 5.85541 48.4157C5.85541 49.1294 6.43808 49.708 7.15684 49.708Z" fill="#D30000"/>
<path d="M14.4246 52.8324C15.1437 52.8324 15.7266 52.2535 15.7266 51.5395C15.7266 50.8255 15.1437 50.2467 14.4246 50.2467C13.7056 50.2467 13.1227 50.8255 13.1227 51.5395C13.1227 52.2535 13.7056 52.8324 14.4246 52.8324Z" fill="#D30000"/>
</svg>
