<svg width="30" height="59" viewBox="0 0 30 59" fill="none" xmlns="http://www.w3.org/2000/svg">
<path d="M13.7981 12.494C13.7981 12.95 13.426 13.3194 12.9669 13.3194C12.5077 13.3194 12.1357 12.95 12.1357 12.494C12.1357 12.0381 12.5077 11.6687 12.9669 11.6687C13.426 11.6687 13.7981 12.0381 13.7981 12.494Z" fill="#68A99B"/>
<path d="M12.9668 10.2951C13.4088 10.2951 13.7671 9.93932 13.7671 9.50045C13.7671 9.06157 13.4088 8.7058 12.9668 8.7058C12.5249 8.7058 12.1666 9.06157 12.1666 9.50045C12.1666 9.93932 12.5249 10.2951 12.9668 10.2951Z" fill="#D30000"/>
<path d="M12.9668 7.27132C13.392 7.27132 13.7367 6.92905 13.7367 6.50684C13.7367 6.08463 13.392 5.74236 12.9668 5.74236C12.5416 5.74236 12.197 6.08463 12.197 6.50684C12.197 6.92905 12.5416 7.27132 12.9668 7.27132Z" fill="#68A99B"/>
<path d="M13.7057 3.51266C13.7057 3.91796 13.375 4.2464 12.9668 4.2464C12.5587 4.2464 12.2279 3.91796 12.2279 3.51266C12.2279 3.10736 12.5587 2.77892 12.9668 2.77892C13.375 2.77892 13.7057 3.10736 13.7057 3.51266Z" fill="#68A99B"/>
<path d="M13.6748 0.519061C13.6748 0.907279 13.3578 1.22207 12.9668 1.22207C12.5759 1.22207 12.2589 0.907279 12.2589 0.519061C12.2589 0.130843 12.5759 -0.183945 12.9668 -0.183945C13.3578 -0.183945 13.6748 0.130843 13.6748 0.519061Z" fill="#68A99B"/>
<path d="M28.6807 35.8686C28.3126 36.3849 28.1149 36.9438 28.0088 37.3628C26.312 36.0319 22.9035 35.432 16.3656 36.5556C13.9826 36.9649 12.8791 36.238 12.1293 35.576C11.379 34.9139 11.2185 33.5427 11.5515 31.2253C11.8783 28.9529 12.2704 29.2318 12.8952 26.8223C15.6754 27.2617 17.0409 29.6605 17.9948 27.9875C18.6116 26.9025 16.8156 26.0658 15.4679 25.595C13.9935 25.0798 13.899 24.9387 13.927 24.7127C14.0469 23.7575 15.9368 24.5146 17.0982 24.6837C18.2166 24.8465 19.3735 25.015 19.5437 24.0899C19.648 23.5224 19.5397 23.0625 18.9705 22.8815C18.2562 22.6543 14.31 22.7095 14.0916 22.0936C14.0159 21.8802 14.0853 21.6115 14.5129 21.4003C16.7423 20.3023 18.509 23.938 21.4876 19.5765C21.6779 19.2981 21.6521 19.0852 21.5971 18.9554C21.5311 18.8006 21.3167 18.5849 21.123 18.516C20.7045 18.3697 20.3319 18.6492 20.0149 18.9105C16.2573 22.0071 15.9431 18.0282 18.6626 17.6041C18.9636 17.5568 19.452 17.2813 19.5322 16.8299C19.5913 16.4992 19.4789 15.1706 17.3132 16.2191C16.3249 16.6979 14.6797 18.3299 13.4232 19.511C12.4624 20.4144 11.8502 19.9886 13.4392 16.6495C13.8497 15.7882 13.9442 15.3072 13.7654 14.9902C13.6295 14.7477 13.3676 14.6566 13.1102 14.5831C12.3965 14.3771 11.8358 14.9355 11.2764 16.4491C11.1732 16.7269 10.9462 17.3639 10.9158 17.4475C10.8447 17.6434 10.6618 17.7464 10.4641 17.7606C10.2084 17.7794 9.92923 17.6513 9.83923 17.3872C9.67299 16.8988 9.26198 14.0839 7.99625 14.8114C6.98046 15.3954 7.95956 16.81 8.1516 17.5819C8.24446 17.9547 8.21351 18.4579 7.85867 18.5655C7.67924 18.6196 7.2602 18.4352 7.05268 18.3612C6.09995 18.0219 5.52327 17.4663 4.57397 17.6519C4.08843 17.747 3.90556 18.3287 4.05289 18.7403C4.42492 19.7814 9.80483 21.1111 9.42592 23.2054C9.06362 23.1558 8.68185 23.1331 8.28229 23.1462C6.36479 23.2076 6.11542 25.2153 5.69867 26.1255C5.28193 27.0357 3.682 25.8011 1.73125 26.2991C0.0464795 26.7295 -0.885622 29.5187 1.19813 31.0084C3.28187 32.4981 5.71243 31.642 6.54593 32.8009C7.37943 33.9599 5.63103 37.2791 5.63103 39.6853C5.63103 45.948 9.72344 45.6133 10.0124 48.7207C10.1373 50.0647 10.3408 56.7504 10.4067 58.9994H12.5163C12.5174 58.2196 12.5214 56.6639 12.5329 53.8513C12.5444 50.9055 12.9388 49.0139 13.5986 48.0519C14.6986 46.4489 16.3284 47.9084 18.2929 47.9084C20.1462 47.9084 21.1218 46.98 22.1227 47.5823C22.9488 48.0792 23.6608 48.6963 24.1182 49.845C24.5401 50.9032 24.3206 56.69 24.2134 59H26.2169C26.2839 57.598 26.4972 54.4313 27.1243 51.6922C27.9578 48.0508 29.4517 44.2511 29.5348 41.0235C29.5595 40.0746 29.4024 39.1314 28.8859 38.3197C29.227 37.94 29.7068 37.3565 29.8862 36.8983C30.1768 36.156 29.3875 34.8769 28.6818 35.8668L28.6807 35.8686Z" fill="#D30000"/>
<path d="M7.98881 26.6828C7.98881 26.9731 7.75148 27.2088 7.45912 27.2088C7.16676 27.2088 6.92944 26.9731 6.92944 26.6828C6.92944 26.3925 7.16676 26.1568 7.45912 26.1568C7.75148 26.1568 7.98881 26.3925 7.98881 26.6828Z" fill="white"/>
<path d="M11.8427 32.5966C11.8364 32.4235 11.7453 32.2784 11.6152 32.1924C11.485 32.1059 11.3159 32.078 11.152 32.1378L6.56085 33.8227C6.47601 33.854 6.40263 33.9064 6.34588 33.973C6.28684 34.0424 6.24671 34.1273 6.23181 34.22L5.92111 36.1452C5.89015 36.337 5.96811 36.5089 6.09881 36.6171C6.23811 36.7326 6.4376 36.7753 6.62906 36.6945L7.72855 36.2277L7.57493 40.9262C7.56919 41.097 7.6483 41.2484 7.77212 41.3446C7.87645 41.4254 8.01231 41.467 8.15562 41.4476L9.41848 41.2797C9.55147 41.2621 9.66612 41.1949 9.74638 41.0987C9.82606 41.0025 9.87077 40.8778 9.86275 40.7446L9.55147 35.4541L11.5882 34.5895C11.6667 34.5559 11.7338 34.5047 11.7854 34.442C11.8622 34.3481 11.9041 34.228 11.8995 34.1022L11.8427 32.5966Z" fill="#68A99B"/>
</svg>
