<svg width="26" height="54" viewBox="0 0 26 54" fill="none" xmlns="http://www.w3.org/2000/svg">
<path d="M13.2468 24.4805C12.9585 24.8504 12.7121 25.1726 12.7181 25.8407C12.7181 26.1092 12.7662 26.312 12.8323 26.491H12.8263C12.604 26.491 12.4117 26.5268 12.2255 26.5805C12.1594 26.3717 12.1113 26.139 12.1053 25.8467C12.1053 24.9697 12.4538 24.5103 12.7662 24.1106C13.0486 23.7407 13.3009 23.4186 13.2949 22.7444C13.2949 22.0763 13.0426 21.7601 12.7542 21.3902C12.4358 20.9905 12.0813 20.5371 12.0813 19.666C12.0753 18.7891 12.4237 18.3357 12.7362 17.93C13.0245 17.5601 13.2709 17.2379 13.2649 16.5698C13.2649 15.9016 13.0125 15.5854 12.7242 15.2155C12.4117 14.8158 12.0573 14.3624 12.0512 13.4854C12.0452 12.6144 12.3997 12.155 12.7061 11.7553C12.9945 11.3854 13.2408 11.0632 13.2348 10.3951C13.2348 9.72689 12.9825 9.40474 12.6941 9.04082C12.3817 8.6411 12.0272 8.1877 12.0212 7.31071C12.0152 6.43969 12.3697 5.98032 12.6761 5.58061C12.9645 5.21072 13.2108 4.88857 13.2108 4.22039C13.2048 3.55221 12.9585 3.23005 12.6641 2.86613C12.3517 2.46642 11.9972 2.01301 11.9912 1.13603C11.9912 0.26501 12.3396 -0.188397 12.652 -0.594076C12.9344 -0.963961 13.1867 -1.28612 13.1807 -1.9543C13.1807 -2.62248 12.9284 -2.93867 12.634 -3.30855C12.3216 -3.70827 11.9671 -4.15571 11.9671 -5.03269C11.9611 -5.90967 12.3096 -6.36308 12.622 -6.7628C12.9104 -7.13268 13.1567 -7.45484 13.1507 -8.12302C13.1507 -8.50483 13.0666 -8.7733 12.9404 -9H13.6133C13.7034 -8.76136 13.7635 -8.475 13.7635 -8.12302C13.7635 -7.252 13.415 -6.79859 13.1026 -6.39291C12.8203 -6.02303 12.5679 -5.70087 12.574 -5.03866C12.58 -4.37048 12.8263 -4.04832 13.1147 -3.67844C13.4331 -3.28469 13.7875 -2.83128 13.7875 -1.9543C13.7936 -1.08328 13.4451 -0.623906 13.1327 -0.224192C12.8443 0.145692 12.598 0.46785 12.604 1.13603C12.604 1.80421 12.8563 2.1204 13.1447 2.49028C13.4571 2.89 13.8116 3.3434 13.8176 4.21442C13.8236 5.09141 13.4691 5.54481 13.1627 5.95049C12.8743 6.32038 12.628 6.64253 12.634 7.31071C12.634 7.97889 12.8864 8.29508 13.1747 8.66497C13.4872 9.06468 13.8416 9.51809 13.8476 10.3891C13.8536 11.2661 13.4992 11.7195 13.1928 12.1252C12.9044 12.4951 12.6581 12.8172 12.6581 13.4854C12.6641 14.1536 12.9104 14.4698 13.2048 14.8397C13.5172 15.2394 13.8717 15.6928 13.8777 16.5698C13.8777 17.4408 13.5292 17.9001 13.2168 18.2999C12.9344 18.6697 12.6881 18.9919 12.6881 19.6601C12.6941 20.3283 12.9404 20.6504 13.2348 21.0203C13.5472 21.4141 13.9017 21.8675 13.9017 22.7444C13.9077 23.6214 13.5592 24.0748 13.2468 24.4805Z" fill="#68A99B"/>
<path d="M11.3994 25.7674C11.3838 25.7793 11.3706 25.7906 11.3562 25.8038C11.1489 25.9881 11.0359 26.2345 11.0359 26.494V29.2616C11.0359 29.4316 11.0846 29.5969 11.1783 29.7406C9.75565 30.2525 7.53933 31.0633 6.73487 31.4415C5.50986 32.0148 5.42816 29.9113 5.75499 29.2407C6.08182 28.5719 6.57086 27.5189 5.83669 25.7972C5.10253 24.0754 6.12147 23.0714 6.85744 23.0231C7.39395 22.9891 10.023 24.7931 11.3994 25.7674Z" fill="#D30000"/>
<path d="M13.8068 25.7674C13.8224 25.7793 13.8356 25.7906 13.85 25.8038C14.0567 25.9881 14.1702 26.2345 14.1702 26.494V29.2616C14.1702 29.4316 14.1216 29.5969 14.0279 29.7406C15.4505 30.2525 17.6669 31.0633 18.4713 31.4415C19.6963 32.0148 19.778 29.9113 19.4512 29.2407C19.1244 28.5719 18.6353 27.5189 19.3695 25.7972C20.1037 24.0754 19.0847 23.0714 18.3488 23.0231C17.8123 22.9891 15.1832 24.7931 13.8068 25.7674Z" fill="#D30000"/>
<path d="M13.537 26.3013C13.4944 26.2589 13.4445 26.2225 13.3886 26.1939C13.2901 26.142 13.176 26.114 13.0552 26.114H12.151C12.032 26.114 11.9161 26.142 11.8176 26.1939C11.7725 26.2166 11.7299 26.2458 11.6932 26.2786C11.5923 26.3681 11.5376 26.4827 11.5376 26.6014V29.156C11.5376 29.261 11.5815 29.3636 11.6614 29.4483C11.6686 29.4555 11.6758 29.4626 11.683 29.4698C11.7995 29.5795 11.9702 29.6428 12.1504 29.6428H13.0546C13.248 29.6428 13.4283 29.5718 13.5436 29.4483C13.5544 29.4376 13.5641 29.4262 13.5731 29.4155C13.635 29.3367 13.668 29.2472 13.668 29.1554V26.6008C13.668 26.463 13.5965 26.3616 13.5364 26.3013H13.537Z" fill="#D30000"/>
<path d="M21.423 41.5352C20.4143 40.5478 20.2334 40.3569 20.2334 40.1684C20.2334 38.4508 19.8658 29.885 12.6034 29.8826H12.6022C5.33984 29.885 4.97215 38.4508 4.97215 40.1684C4.97215 40.3569 4.7913 40.5478 3.78257 41.5352C2.46023 42.8274 0 45.234 0 46.3729C0 48.8613 3.51282 50.4744 9.53154 50.8503C9.71479 52.3143 10.9146 53.4449 12.3691 53.4449C12.4478 53.4449 12.5259 53.4401 12.6034 53.4335C12.6809 53.4401 12.7584 53.4449 12.8377 53.4449C14.2922 53.4449 15.4914 52.3143 15.6752 50.8503C21.694 50.4738 25.2068 48.8607 25.2068 46.3729C25.2068 45.234 22.7466 42.8274 21.4242 41.5352H21.423Z" fill="#68A99B"/>
</svg>
