<svg width="31" height="61" viewBox="0 0 31 61" fill="none" xmlns="http://www.w3.org/2000/svg">
<path d="M30.7052 43.3431L27.2776 39.2912L29.0866 38.2512L24.469 35.604L25.8087 34.017L20.5585 33.0986L21.2726 31.1537L16.0157 32.0721V29.9989L11.398 32.6461L10.6839 30.7012L7.25634 34.7531L5.9166 33.1661L4.09402 38.1431L2.28503 37.1099V42.4044L0.231222 42.0465L2.05381 47.0235L0 47.3814L3.42756 51.4401L1.61857 52.4733L6.23624 55.1205L4.8965 56.7075L10.1466 57.6259L9.43938 59.5776L14.6895 58.6524V60.7256L19.3072 58.0784L20.0213 60.03L23.4488 55.9714L24.7886 57.5584L26.6112 52.5813L28.4202 53.6146V48.3201L30.474 48.6848L28.6514 43.7077L30.7052 43.3431ZM25.5707 39.1426C26.0399 39.4127 26.5024 39.6896 26.9648 39.9597C25.9719 41.6345 24.1833 42.6812 22.2247 42.742C22.2111 42.2018 22.1907 41.6683 22.1771 41.128C23.578 41.0875 24.8566 40.3379 25.5707 39.1426ZM19.6608 35.057C20.2253 35.057 20.681 35.5027 20.681 36.0632C20.681 36.6169 20.2253 37.0694 19.6608 37.0694C19.1032 37.0694 18.6475 36.6169 18.6475 36.0632C18.6475 35.5027 19.1032 35.057 19.6608 35.057ZM13.6014 33.1256C14.8935 34.5842 15.3424 36.6034 14.7983 38.4673C14.2747 38.312 13.7578 38.1634 13.2342 38.0148C13.6286 36.6777 13.309 35.2393 12.3841 34.1926C12.7853 33.8414 13.1934 33.4835 13.6014 33.1256ZM6.51507 38.0283C7.07273 38.0283 7.52839 38.474 7.52839 39.0346C7.52839 39.5883 7.07273 40.0408 6.51507 40.0408C5.95741 40.0408 5.50177 39.5883 5.50177 39.0346C5.50177 38.474 5.95741 38.0283 6.51507 38.0283ZM5.97783 48.9076C5.42017 48.9076 4.96451 48.4552 4.96451 47.8947C4.96451 47.3409 5.42017 46.8884 5.97783 46.8884C6.54229 46.8884 6.99793 47.3409 6.99793 47.8947C6.99793 48.4552 6.54229 48.9076 5.97783 48.9076ZM7.49437 45.4906C6.33145 44.7139 4.8557 44.5721 3.57037 45.1191C3.35275 44.6261 3.14192 44.1332 2.9243 43.6402C4.71968 42.8703 6.7871 43.0662 8.40566 44.1602C8.09963 44.6059 7.7936 45.0516 7.49437 45.4906ZM11.3096 56.8223C10.7723 56.8696 10.2351 56.9236 9.69101 56.9709C9.51419 55.0395 10.3371 53.1486 11.8876 51.96C12.2141 52.3787 12.5473 52.8042 12.8805 53.2296C11.772 54.0805 11.1804 55.4379 11.3096 56.8223ZM15.4376 56.5454C14.8799 56.5454 14.4243 56.0997 14.4243 55.5392C14.4243 54.9854 14.8799 54.533 15.4376 54.533C16.0021 54.533 16.4577 54.9854 16.4577 55.5392C16.4577 56.0997 16.0021 56.5454 15.4376 56.5454ZM18.2327 49.799L19.2324 50.9808L16.5325 50.5081L17.063 51.96L14.6895 50.6027V52.1424L12.9213 50.0557L12.3909 51.5076L11.4524 48.9482L10.4527 50.13V47.4084L9.10614 48.1783L10.0446 45.6189L8.51448 45.889L10.2759 43.8023L8.7457 43.5321L11.1192 42.1748L9.77261 41.3982L12.4725 40.9254L11.4728 39.7436L14.1727 40.2164L13.6422 38.7644L16.0157 40.1286V38.5821L17.7838 40.6688L18.3143 39.2169L19.2528 41.7763L20.2525 40.5945V43.316L21.5991 42.5462L20.6606 45.1056L22.1907 44.8355L20.4293 46.9222L21.9663 47.1923L19.586 48.5565L20.9326 49.3263L18.2327 49.799ZM24.5506 54.7018C22.6464 54.2696 21.089 52.9055 20.4293 51.0754C20.9394 50.8998 21.4494 50.7175 21.9527 50.5351C22.4287 51.8452 23.5441 52.8244 24.911 53.1283C24.7886 53.6483 24.673 54.1751 24.5506 54.7018ZM26.1283 47.8474C25.5706 47.8474 25.115 47.3949 25.115 46.8344C25.115 46.2807 25.5706 45.8282 26.1283 45.8282C26.6928 45.8282 27.1484 46.2807 27.1484 46.8344C27.1484 47.3949 26.6928 47.8474 26.1283 47.8474Z" fill="#68A99B"/>
<path d="M27.1484 46.8344C27.1484 47.3949 26.6928 47.8474 26.1283 47.8474C25.5707 47.8474 25.115 47.3949 25.115 46.8344C25.115 46.2807 25.5707 45.8282 26.1283 45.8282C26.6928 45.8282 27.1484 46.2807 27.1484 46.8344Z" fill="#D30000"/>
<path d="M24.911 53.1284C24.7886 53.6483 24.673 54.1751 24.5506 54.7018C22.6464 54.2696 21.089 52.9055 20.4294 51.0754C20.9394 50.8998 21.4495 50.7175 21.9527 50.5352C22.4288 51.8453 23.5441 52.8245 24.911 53.1284Z" fill="#D30000"/>
<path d="M16.4577 55.5392C16.4577 56.0997 16.0021 56.5454 15.4376 56.5454C14.88 56.5454 14.4243 56.0997 14.4243 55.5392C14.4243 54.9854 14.88 54.533 15.4376 54.533C16.0021 54.533 16.4577 54.9854 16.4577 55.5392Z" fill="#D30000"/>
<path d="M11.3096 56.8223C10.7723 56.8696 10.2351 56.9236 9.69101 56.9709C9.51419 55.0395 10.3371 53.1486 11.8876 51.9601C12.2141 52.3787 12.5473 52.8042 12.8805 53.2296C11.772 54.0805 11.1804 55.4379 11.3096 56.8223Z" fill="#D30000"/>
<path d="M6.99796 47.8947C6.99796 48.4552 6.54232 48.9076 5.97786 48.9076C5.4202 48.9076 4.96454 48.4552 4.96454 47.8947C4.96454 47.3409 5.4202 46.8884 5.97786 46.8884C6.54232 46.8884 6.99796 47.3409 6.99796 47.8947Z" fill="#D30000"/>
<path d="M26.9648 39.9598C25.9719 41.6345 24.1833 42.6813 22.2247 42.742C22.2111 42.2018 22.1907 41.6683 22.1771 41.128C23.5781 41.0875 24.8566 40.3379 25.5707 39.1426C26.0399 39.4127 26.5024 39.6896 26.9648 39.9598Z" fill="#D30000"/>
<path d="M20.6809 36.0632C20.6809 36.6169 20.2253 37.0694 19.6608 37.0694C19.1032 37.0694 18.6475 36.6169 18.6475 36.0632C18.6475 35.5027 19.1032 35.057 19.6608 35.057C20.2253 35.057 20.6809 35.5027 20.6809 36.0632Z" fill="#D30000"/>
<path d="M14.7984 38.4673C14.2747 38.312 13.7578 38.1634 13.2342 38.0148C13.6286 36.6777 13.309 35.2393 12.3841 34.1926C12.7853 33.8414 13.1934 33.4835 13.6014 33.1256C14.8936 34.5843 15.3424 36.6034 14.7984 38.4673Z" fill="#D30000"/>
<path d="M7.52839 39.0346C7.52839 39.5883 7.07273 40.0408 6.51507 40.0408C5.95741 40.0408 5.50177 39.5883 5.50177 39.0346C5.50177 38.4741 5.95741 38.0284 6.51507 38.0284C7.07273 38.0284 7.52839 38.4741 7.52839 39.0346Z" fill="#D30000"/>
<path d="M8.40569 44.1602C8.09965 44.6059 7.79362 45.0516 7.49439 45.4906C6.33147 44.714 4.85573 44.5721 3.57039 45.1191C3.35277 44.6262 3.14194 44.1332 2.92432 43.6402C4.7197 42.8703 6.78712 43.0662 8.40569 44.1602Z" fill="#D30000"/>
<path d="M15.3525 5.15074C15.6921 5.15074 15.9673 4.87742 15.9673 4.54026C15.9673 4.2031 15.6921 3.92978 15.3525 3.92978C15.013 3.92978 14.7378 4.2031 14.7378 4.54026C14.7378 4.87742 15.013 5.15074 15.3525 5.15074Z" fill="#D30000"/>
<path d="M15.968 6.09077C15.968 6.42775 15.6926 6.70126 15.3532 6.70126C15.0139 6.70126 14.7385 6.42775 14.7385 6.09077C14.7385 5.75379 15.0139 5.47961 15.3532 5.47961C15.6926 5.47961 15.968 5.75312 15.968 6.09077Z" fill="#68A99B"/>
<path d="M15.3526 8.33551C14.967 8.33551 14.6535 8.02419 14.6535 7.64129C14.6535 7.25839 14.967 6.94707 15.3526 6.94707C15.7382 6.94707 16.0517 7.25839 16.0517 7.64129C16.0517 8.02419 15.7382 8.33551 15.3526 8.33551ZM15.3526 7.11387C15.0595 7.11387 14.8215 7.3509 14.8215 7.64129C14.8215 7.93167 15.0595 8.16871 15.3526 8.16871C15.6457 8.16871 15.8837 7.93167 15.8837 7.64129C15.8837 7.3509 15.6457 7.11387 15.3526 7.11387Z" fill="#68A99B"/>
<path d="M15.968 9.19249C15.968 9.52947 15.6926 9.80297 15.3532 9.80297C15.0139 9.80297 14.7385 9.52947 14.7385 9.19249C14.7385 8.85551 15.0139 8.58133 15.3532 8.58133C15.6926 8.58133 15.968 8.85483 15.968 9.19249Z" fill="#68A99B"/>
<path d="M15.968 10.743C15.968 11.08 15.6926 11.3535 15.3532 11.3535C15.0139 11.3535 14.7385 11.08 14.7385 10.743C14.7385 10.406 15.0139 10.1319 15.3532 10.1319C15.6926 10.1319 15.968 10.4054 15.968 10.743Z" fill="#D30000"/>
<path d="M15.968 12.2935C15.968 12.6312 15.6926 12.9047 15.3532 12.9047C15.0139 12.9047 14.7385 12.6312 14.7385 12.2935C14.7385 11.9559 15.0139 11.683 15.3532 11.683C15.6926 11.683 15.968 11.9565 15.968 12.2935Z" fill="#68A99B"/>
<path d="M15.3526 14.5383C14.967 14.5383 14.6535 14.227 14.6535 13.844C14.6535 13.4611 14.967 13.1498 15.3526 13.1498C15.7382 13.1498 16.0517 13.4611 16.0517 13.844C16.0517 14.227 15.7382 14.5383 15.3526 14.5383ZM15.3526 13.3166C15.0595 13.3166 14.8215 13.5537 14.8215 13.844C14.8215 14.1344 15.0595 14.3715 15.3526 14.3715C15.6457 14.3715 15.8837 14.1344 15.8837 13.844C15.8837 13.5537 15.6457 13.3166 15.3526 13.3166Z" fill="#68A99B"/>
<path d="M15.968 15.3952C15.968 15.7329 15.6926 16.0064 15.3532 16.0064C15.0139 16.0064 14.7385 15.7329 14.7385 15.3952C14.7385 15.0576 15.0139 14.7841 15.3532 14.7841C15.6926 14.7841 15.968 15.0576 15.968 15.3952Z" fill="#68A99B"/>
<path d="M15.3525 17.5562C15.6921 17.5562 15.9673 17.2829 15.9673 16.9458C15.9673 16.6086 15.6921 16.3353 15.3525 16.3353C15.013 16.3353 14.7378 16.6086 14.7378 16.9458C14.7378 17.2829 15.013 17.5562 15.3525 17.5562Z" fill="#D30000"/>
<path d="M15.3525 19.1068C15.6921 19.1068 15.9673 18.8334 15.9673 18.4963C15.9673 18.1591 15.6921 17.8858 15.3525 17.8858C15.013 17.8858 14.7378 18.1591 14.7378 18.4963C14.7378 18.8334 15.013 19.1068 15.3525 19.1068Z" fill="#68A99B"/>
<path d="M15.3526 20.741C14.967 20.741 14.6535 20.4297 14.6535 20.0468C14.6535 19.6639 14.967 19.3526 15.3526 19.3526C15.7382 19.3526 16.0517 19.6639 16.0517 20.0468C16.0517 20.4297 15.7382 20.741 15.3526 20.741ZM15.3526 19.5194C15.0595 19.5194 14.8215 19.7564 14.8215 20.0468C14.8215 20.3372 15.0595 20.5742 15.3526 20.5742C15.6457 20.5742 15.8837 20.3372 15.8837 20.0468C15.8837 19.7564 15.6457 19.5194 15.3526 19.5194Z" fill="#68A99B"/>
<path d="M15.3525 22.2078C15.6921 22.2078 15.9673 21.9345 15.9673 21.5973C15.9673 21.2601 15.6921 20.9868 15.3525 20.9868C15.013 20.9868 14.7378 21.2601 14.7378 21.5973C14.7378 21.9345 15.013 22.2078 15.3525 22.2078Z" fill="#68A99B"/>
<path d="M15.3525 23.7583C15.6921 23.7583 15.9673 23.485 15.9673 23.1478C15.9673 22.8107 15.6921 22.5374 15.3525 22.5374C15.013 22.5374 14.7378 22.8107 14.7378 23.1478C14.7378 23.485 15.013 23.7583 15.3525 23.7583Z" fill="#D30000"/>
<path d="M15.3525 25.3095C15.6921 25.3095 15.9673 25.0362 15.9673 24.699C15.9673 24.3619 15.6921 24.0885 15.3525 24.0885C15.013 24.0885 14.7378 24.3619 14.7378 24.699C14.7378 25.0362 15.013 25.3095 15.3525 25.3095Z" fill="#68A99B"/>
<path d="M15.3526 26.9431C14.967 26.9431 14.6535 26.6318 14.6535 26.2489C14.6535 25.866 14.967 25.5546 15.3526 25.5546C15.7382 25.5546 16.0517 25.866 16.0517 26.2489C16.0517 26.6318 15.7382 26.9431 15.3526 26.9431ZM15.3526 25.7221C15.0595 25.7221 14.8215 25.9592 14.8215 26.2495C14.8215 26.5399 15.0595 26.777 15.3526 26.777C15.6457 26.777 15.8837 26.5399 15.8837 26.2495C15.8837 25.9592 15.6457 25.7221 15.3526 25.7221Z" fill="#68A99B"/>
<path d="M15.3525 28.4105C15.6921 28.4105 15.9673 28.1372 15.9673 27.8001C15.9673 27.4629 15.6921 27.1896 15.3525 27.1896C15.013 27.1896 14.7378 27.4629 14.7378 27.8001C14.7378 28.1372 15.013 28.4105 15.3525 28.4105Z" fill="#68A99B"/>
<path d="M15.3525 29.9611C15.6921 29.9611 15.9673 29.6877 15.9673 29.3506C15.9673 29.0134 15.6921 28.7401 15.3525 28.7401C15.013 28.7401 14.7378 29.0134 14.7378 29.3506C14.7378 29.6877 15.013 29.9611 15.3525 29.9611Z" fill="#D30000"/>
<path d="M15.3525 0.568073C15.6921 0.568073 15.9673 0.29475 15.9673 -0.04241C15.9673 -0.37957 15.6921 -0.652893 15.3525 -0.652893C15.013 -0.652893 14.7378 -0.37957 14.7378 -0.04241C14.7378 0.29475 15.013 0.568073 15.3525 0.568073Z" fill="#68A99B"/>
<path d="M15.3526 2.20233C14.967 2.20233 14.6535 1.89101 14.6535 1.50811C14.6535 1.12521 14.967 0.813889 15.3526 0.813889C15.7382 0.813889 16.0517 1.12521 16.0517 1.50811C16.0517 1.89101 15.7382 2.20233 15.3526 2.20233ZM15.3526 0.980691C15.0595 0.980691 14.8215 1.21773 14.8215 1.50811C14.8215 1.79849 15.0595 2.03553 15.3526 2.03553C15.6457 2.03553 15.8837 1.79849 15.8837 1.50811C15.8837 1.21773 15.6457 0.980691 15.3526 0.980691Z" fill="#68A99B"/>
<path d="M15.3525 3.6691C15.6921 3.6691 15.9673 3.39578 15.9673 3.05862C15.9673 2.72146 15.6921 2.44814 15.3525 2.44814C15.013 2.44814 14.7378 2.72146 14.7378 3.05862C14.7378 3.39578 15.013 3.6691 15.3525 3.6691Z" fill="#68A99B"/>
</svg>
