<svg width="32" height="94" viewBox="0 0 32 94" fill="none" xmlns="http://www.w3.org/2000/svg">
<path d="M13.9841 1.7093C14.9781 1.7187 15.7943 2.46128 15.913 3.4186C16.0317 2.46128 16.8472 1.7187 17.8419 1.7093C16.8479 1.6999 16.0317 0.957324 15.913 0C15.7943 0.957324 14.9788 1.6999 13.9841 1.7093Z" fill="#68A99B"/>
<path d="M14.0518 6.0997C15.0108 6.1091 15.7986 6.82492 15.913 7.74898C16.0273 6.82492 16.8144 6.10837 17.7741 6.0997C16.8151 6.0903 16.0273 5.37447 15.913 4.45041C15.7986 5.37447 15.0115 6.09102 14.0518 6.0997Z" fill="#68A99B"/>
<path d="M14.1196 10.4894C15.0436 10.498 15.8023 11.1886 15.913 12.0786C16.0229 11.1886 16.7817 10.498 17.7064 10.4894C16.7824 10.4807 16.0237 9.79017 15.913 8.90009C15.803 9.79017 15.0443 10.4807 14.1196 10.4894Z" fill="#D30000"/>
<path d="M14.1873 14.879C15.0763 14.8877 15.8067 15.5522 15.913 16.4083C16.0193 15.5515 16.7489 14.887 17.6387 14.879C16.7496 14.8703 16.0193 14.2066 15.913 13.3498C15.8067 14.2066 15.0771 14.8711 14.1873 14.879Z" fill="#68A99B"/>
<path d="M14.255 19.2694C15.1099 19.2774 15.811 19.9158 15.913 20.7387C16.0149 19.9158 16.7161 19.2774 17.571 19.2694C16.7161 19.2614 16.0149 18.623 15.913 17.8002C15.811 18.623 15.1099 19.2614 14.255 19.2694Z" fill="#68A99B"/>
<path d="M14.3227 23.6591C15.1426 23.667 15.8154 24.2794 15.913 25.0683C16.0105 24.2787 16.6834 23.6663 17.5033 23.6591C16.6834 23.6511 16.0105 23.0387 15.913 22.2498C15.8154 23.0394 15.1426 23.6518 14.3227 23.6591Z" fill="#D30000"/>
<path d="M14.3904 28.0487C15.1754 28.056 15.8191 28.6424 15.913 29.3987C16.0062 28.6431 16.6506 28.0567 17.4356 28.0487C16.6506 28.0415 16.0069 27.4551 15.913 26.6995C15.8191 27.4551 15.1754 28.0415 14.3904 28.0487Z" fill="#68A99B"/>
<path d="M14.4581 32.4384C15.2081 32.4456 15.8234 33.006 15.913 33.7283C16.0025 33.006 16.6178 32.4456 17.3678 32.4384C16.6178 32.4312 16.0025 31.8715 15.913 31.1492C15.8234 31.8715 15.2081 32.4319 14.4581 32.4384Z" fill="#D30000"/>
<path d="M14.5259 36.8288C15.2409 36.8353 15.8278 37.3696 15.913 38.0587C15.9982 37.3696 16.5851 36.836 17.3001 36.8288C16.5851 36.8223 15.9982 36.2879 15.913 35.5989C15.8278 36.2879 15.2409 36.8216 14.5259 36.8288Z" fill="#68A99B"/>
<path d="M14.5936 41.2185C15.2737 41.225 15.8321 41.7333 15.913 42.3884C15.9938 41.7333 16.5523 41.225 17.2324 41.2185C16.5523 41.2119 15.9938 40.7036 15.913 40.0486C15.8321 40.7036 15.2737 41.2119 14.5936 41.2185Z" fill="#68A99B"/>
<path d="M14.6613 45.6081C15.3065 45.6146 15.8365 46.0962 15.913 46.718C15.9902 46.0962 16.5195 45.6146 17.1647 45.6081C16.5195 45.6016 15.9895 45.1201 15.913 44.4982C15.8358 45.1201 15.3065 45.6016 14.6613 45.6081Z" fill="#D30000"/>
<path d="M14.729 49.9985C15.3392 50.0043 15.8402 50.4606 15.913 51.0484C15.9858 50.4606 16.4868 50.0043 17.097 49.9985C16.4868 49.9927 15.9858 49.5365 15.913 48.9486C15.8402 49.5365 15.3392 49.9927 14.729 49.9985Z" fill="#68A99B"/>
<path d="M14.796 54.3882C15.3713 54.394 15.8438 54.8235 15.913 55.378C15.9814 54.8235 16.454 54.394 17.0293 54.3882C16.454 54.3824 15.9814 53.9529 15.913 53.3983C15.8446 53.9529 15.372 54.3824 14.796 54.3882Z" fill="#68A99B"/>
<path d="M31.3745 67.3619C30.8458 66.4147 29.9611 65.7864 28.9818 65.5623C28.1233 65.3641 27.1956 65.4675 26.3721 65.9151C26.3721 65.9151 26.3459 65.9238 26.3029 65.9498C25.7743 66.1993 22.2195 67.8869 20.8585 68.3952C20.4945 68.5326 20.1996 68.4212 19.9746 68.1884C21.8037 66.9144 23 64.8052 23 62.4119C23 59.5016 21.2139 56.997 18.6741 55.929C17.8243 55.5762 16.8967 55.378 15.9173 55.378C14.938 55.378 14.0096 55.5762 13.1605 55.929C10.6113 56.9962 8.82587 59.5016 8.82587 62.4119C8.82587 64.8052 10.0222 66.9144 11.8513 68.1884C11.6256 68.4205 11.3314 68.5326 10.9674 68.3952C9.77101 67.9476 6.89265 66.5955 5.84339 66.0966C5.60091 65.9845 5.45309 65.9158 5.45309 65.9158C4.62955 65.4683 3.70188 65.3649 2.84339 65.563C1.86403 65.7871 0.979348 66.4155 0.450712 67.3627C0.0866372 68.0344 -0.0524401 68.7574 0.0174622 69.4631C0.130325 70.6251 0.798039 71.7277 1.91648 72.3301C1.91648 72.3301 8.28048 74.8528 9.31227 76.3589C9.93629 77.2627 9.58096 79.4066 8.93946 80.5172C8.29796 81.6365 3.40773 87.7752 3.40773 87.7752C2.8354 88.5243 2.62715 89.4455 2.74875 90.3406C2.87909 91.3739 3.45141 92.3898 4.39582 93.0955C5.06353 93.5951 5.81789 93.8706 6.56351 93.9393C7.8203 94.0513 9.0516 93.5777 9.8147 92.5705L14.5054 86.3978C14.5054 86.3978 15.1207 85.4593 15.945 85.4593C16.7598 85.4593 17.3321 86.3978 17.3321 86.3978L22.0141 92.5705C22.7772 93.5777 24.0078 94.0513 25.2653 93.9393C26.0109 93.8706 26.774 93.5951 27.433 93.0955C28.3781 92.3898 28.9505 91.3739 29.0801 90.3406C29.2017 89.4455 28.9934 88.5243 28.4211 87.7752C28.4211 87.7752 23.5316 81.6365 22.8893 80.5172C22.2478 79.4066 21.8925 77.2627 22.5165 76.3589C23.5483 74.8521 29.9123 72.3301 29.9123 72.3301C31.0308 71.7277 31.6985 70.6251 31.8114 69.4631C31.8805 68.7574 31.7422 68.0344 31.3781 67.3627L31.3745 67.3619ZM19.1408 60.8096C19.1408 61.3866 18.6726 61.8602 18.0916 61.8602C17.5018 61.8602 17.0336 61.3866 17.0336 60.8096C17.0336 60.2326 17.5018 59.7677 18.0916 59.7677C18.6726 59.7677 19.1408 60.2326 19.1408 60.8096ZM13.7394 59.7684C14.3205 59.7684 14.7887 60.2333 14.7887 60.8103C14.7887 61.3873 14.3205 61.8609 13.7394 61.8609C13.1496 61.8609 12.6814 61.3873 12.6814 60.8103C12.6814 60.2333 13.1496 59.7684 13.7394 59.7684ZM12.6989 63.7373C12.8984 63.6425 13.1321 63.7286 13.2275 63.9267C13.7562 65.046 14.7792 65.743 15.9151 65.743C17.0423 65.743 18.0654 65.054 18.594 63.952C18.6894 63.7539 18.9319 63.6679 19.1314 63.7626C19.3309 63.8573 19.4175 64.0894 19.3221 64.2875C18.6544 65.6823 17.354 66.5434 15.9151 66.5434C14.4676 66.5434 13.1584 65.6657 12.4994 64.2622C12.404 64.0641 12.4906 63.8233 12.6989 63.7373ZM12.6822 68.5586C12.8118 68.4899 12.9683 68.4812 13.1154 68.5586L15.6989 69.9534C15.7425 69.9794 15.7855 69.996 15.8379 70.0047C15.9333 70.0221 16.0375 70.0047 16.1241 69.9534L18.7076 68.5586C18.8721 68.4726 19.0542 68.4986 19.1845 68.5846C19.2974 68.6707 19.3753 68.8001 19.3753 68.9635L19.2974 71.8904C19.2974 72.0625 19.202 72.2006 19.0636 72.2693C18.9333 72.3467 18.76 72.3467 18.6129 72.2606L16.1503 70.7625C16.0724 70.7191 15.977 70.6938 15.8904 70.7025C15.8212 70.7025 15.7433 70.7285 15.6821 70.7625L13.2115 72.2606C13.0557 72.3554 12.8737 72.3467 12.7346 72.2606C12.613 72.1833 12.5263 72.0538 12.5263 71.8904L12.4571 68.9635C12.4484 68.7827 12.5431 68.636 12.6822 68.5586Z" fill="#D30000"/>
<path d="M14.7887 60.8096C14.7887 61.3866 14.3205 61.8602 13.7395 61.8602C13.1497 61.8602 12.6815 61.3866 12.6815 60.8096C12.6815 60.2326 13.1497 59.7677 13.7395 59.7677C14.3205 59.7677 14.7887 60.2326 14.7887 60.8096Z" fill="white"/>
<path d="M19.1408 60.8096C19.1408 61.3866 18.6726 61.8602 18.0916 61.8602C17.5018 61.8602 17.0336 61.3866 17.0336 60.8096C17.0336 60.2326 17.5018 59.7677 18.0916 59.7677C18.6726 59.7677 19.1408 60.2326 19.1408 60.8096Z" fill="white"/>
<path d="M19.3229 64.2882C18.6552 65.683 17.3547 66.5442 15.9159 66.5442C14.4683 66.5442 13.1591 65.6664 12.5001 64.2629C12.4048 64.0648 12.4914 63.824 12.6996 63.738C12.8992 63.6433 13.1329 63.7293 13.2283 63.9274C13.7569 65.0467 14.78 65.7437 15.9159 65.7437C17.043 65.7437 18.0661 65.0547 18.5947 63.9527C18.6901 63.7546 18.9326 63.6686 19.1321 63.7633C19.3316 63.858 19.4183 64.0901 19.3229 64.2882Z" fill="white"/>
<path d="M19.3753 68.9628L19.2974 71.8897C19.2974 72.0618 19.202 72.1999 19.0637 72.2686C18.9333 72.346 18.76 72.346 18.6129 72.2599L16.1503 70.7617C16.0724 70.7184 15.977 70.6931 15.8904 70.7017C15.8212 70.7017 15.7433 70.7278 15.6821 70.7617L13.2115 72.2599C13.0557 72.3546 12.8737 72.346 12.7346 72.2599C12.613 72.1825 12.5263 72.0531 12.5263 71.8897L12.4572 68.9628C12.4484 68.782 12.5438 68.6352 12.6829 68.5579C12.8125 68.4892 12.969 68.4805 13.1161 68.5579L15.6996 69.9526C15.7433 69.9787 15.7863 69.9953 15.8387 70.004C15.9341 70.0213 16.0382 70.004 16.1249 69.9526L18.7083 68.5579C18.8729 68.4718 19.0549 68.4979 19.1853 68.5839C19.2981 68.6699 19.376 68.7994 19.376 68.9628H19.3753Z" fill="#68A99B"/>
</svg>
