<svg width="6" height="6" viewBox="0 0 6 6" fill="none" xmlns="http://www.w3.org/2000/svg">
<path d="M4.64707 4.37548L3.50316 2.92286L5.34173 2.66545C5.54052 2.63726 5.67961 2.45504 5.65121 2.25693C5.62354 2.05881 5.43785 1.92071 5.24052 1.94963L3.40121 2.20704L4.09587 0.497013C4.17087 0.311911 4.0813 0.101502 3.89417 0.0263041C3.70776 -0.0481706 3.49587 0.0407655 3.42014 0.226591L2.72551 1.93662L1.58157 0.483997C1.45779 0.327817 1.22842 0.299619 1.07042 0.421816C0.911679 0.544735 0.884011 0.771774 1.0078 0.9294L2.15173 2.38202L0.313135 2.63943C0.11435 2.66762 -0.0247176 2.84983 0.00368017 3.04795C0.0218839 3.18027 0.111456 3.28584 0.22796 3.33283C0.285484 3.35597 0.349553 3.36465 0.415086 3.35597L2.25439 3.09856L1.55973 4.80859C1.48473 4.99369 1.5743 5.2041 1.76143 5.2793C1.94857 5.35449 2.15973 5.26483 2.23546 5.07901L2.93012 3.36899L4.07403 4.8216C4.11481 4.87366 4.16723 4.91126 4.22476 4.9344C4.34053 4.98068 4.47961 4.96621 4.58519 4.88379C4.74392 4.76087 4.77159 4.53383 4.64781 4.3762L4.64707 4.37548Z" fill="#68A99B"/>
</svg>
