<svg width="6" height="6" viewBox="0 0 6 6" fill="none" xmlns="http://www.w3.org/2000/svg">
<path d="M4.80893 4.38063L3.47351 3.06684L5.26475 2.50069C5.45917 2.43923 5.5713 2.2281 5.51596 2.02781C5.46135 1.82752 5.2582 1.71545 5.06524 1.77763L3.27326 2.34306L3.72908 0.463119C3.7786 0.259217 3.65991 0.0567616 3.46477 0.00976304C3.26962 -0.0372355 3.07084 0.0900223 3.02132 0.293201L2.5655 2.17314L1.22935 0.859353C1.08518 0.717634 0.853626 0.72631 0.713821 0.878875C0.57256 1.03144 0.576203 1.27077 0.721104 1.41321L2.05653 2.727L0.265284 3.29315C0.071596 3.35461 -0.041268 3.56575 0.0140714 3.76531C0.0504788 3.89907 0.153877 3.9938 0.275478 4.02272C0.335914 4.03718 0.399987 4.03573 0.464065 4.01549L2.25604 3.44933L1.80022 5.32928C1.75071 5.53318 1.8694 5.73563 2.06454 5.78263C2.26041 5.82963 2.45847 5.70237 2.50798 5.49847L2.9638 3.61853L4.29923 4.93232C4.34729 4.97932 4.40408 5.00969 4.46452 5.02415C4.58612 5.05307 4.72155 5.01547 4.81549 4.9128C4.95675 4.76023 4.9531 4.5209 4.8082 4.37846L4.80893 4.38063Z" fill="#68A99B"/>
</svg>
