<svg width="7" height="6" viewBox="0 0 7 6" fill="none" xmlns="http://www.w3.org/2000/svg">
<path d="M5.06024 4.85174L3.94544 3.37671L5.78912 3.15618C5.98864 3.13232 6.13135 2.95228 6.10659 2.75416C6.08329 2.55532 5.90052 2.4136 5.70174 2.43891L3.85807 2.65944L4.58767 0.963153C4.66631 0.779497 4.58112 0.566917 4.39617 0.488828C4.21122 0.410015 3.99715 0.495335 3.91851 0.679714L3.1889 2.376L2.0741 0.900968C1.95396 0.741896 1.72532 0.70936 1.5644 0.828664C1.40348 0.948691 1.37071 1.17501 1.49158 1.3348L2.60638 2.80983L0.762711 3.03036C0.563199 3.05423 0.420478 3.23427 0.445235 3.43311C0.461254 3.56542 0.548634 3.67316 0.663682 3.72233C0.720478 3.74619 0.784552 3.75631 0.850086 3.74908L2.69376 3.52855L1.96415 5.22484C1.88551 5.40849 1.97071 5.62107 2.15566 5.69916C2.34061 5.77797 2.55469 5.69265 2.63333 5.509L3.36293 3.81271L4.47772 5.28774C4.51777 5.34053 4.56875 5.37884 4.62627 5.40343C4.74132 5.4526 4.88038 5.44031 4.98742 5.36005C5.14834 5.24002 5.18111 5.01371 5.06024 4.85391V4.85174Z" fill="#68A99B"/>
</svg>
