<svg width="6" height="6" viewBox="0 0 6 6" fill="none" xmlns="http://www.w3.org/2000/svg">
<path d="M4.39246 4.61759L3.51212 2.9683L5.3922 2.95818C5.59608 2.95673 5.7672 2.78826 5.77375 2.58146C5.78176 2.37395 5.62157 2.20692 5.41915 2.20909L3.53907 2.21921L4.53809 0.559802C4.64658 0.379762 4.59415 0.151278 4.42158 0.0493276C4.24901 -0.0533462 4.0211 0.00955739 3.91333 0.188875L2.91431 1.84829L2.03325 0.198998C1.93787 0.0211262 1.71432 -0.0396082 1.5352 0.0645117C1.35462 0.168632 1.28617 0.39784 1.38156 0.576435L2.26189 2.22572L0.381813 2.23584C0.177931 2.23657 0.00681462 2.40504 0.000261278 2.61256C-0.00483576 2.75066 0.0650662 2.87213 0.172832 2.93576C0.225987 2.96757 0.287879 2.98493 0.355597 2.98493L2.23568 2.97481L1.23593 4.63422C1.12744 4.81426 1.17986 5.04274 1.35244 5.14541C1.52501 5.24809 1.75219 5.18518 1.86068 5.00587L2.8597 3.34646L3.74076 4.99574C3.77207 5.05431 3.81795 5.10059 3.8711 5.1324C3.97887 5.19603 4.1194 5.20037 4.23955 5.13023C4.42013 5.02611 4.48857 4.7969 4.39318 4.61831L4.39246 4.61759Z" fill="#68A99B"/>
</svg>
