<svg width="6" height="6" viewBox="0 0 6 6" fill="none" xmlns="http://www.w3.org/2000/svg">
<path d="M5.27894 3.25508L3.48041 2.71062L4.79982 1.38092C4.94254 1.23704 4.94327 0.997704 4.79982 0.846586C4.65783 0.694744 4.42483 0.689683 4.28357 0.833571L2.96415 2.16327L2.48576 0.289111C2.43406 0.0859322 2.23383 -0.0384333 2.03941 0.0107344C1.84427 0.0599021 1.72849 0.263804 1.78019 0.466982L2.25858 2.34114L0.460052 1.79668C0.266364 1.73811 0.0653964 1.85235 0.0129697 2.05264C-0.0401852 2.25293 0.07486 2.46334 0.270004 2.5219L2.06853 3.06636L0.749129 4.39606C0.606412 4.53995 0.605684 4.77928 0.749129 4.9304C0.843789 5.03163 0.979948 5.06778 1.10155 5.03741C1.16126 5.02223 1.21806 4.99114 1.26539 4.94414L2.58552 3.61444L3.06391 5.4886C3.11561 5.69178 3.31585 5.81614 3.51026 5.76697C3.70468 5.71781 3.82119 5.5139 3.76949 5.31073L3.29109 3.43657L5.08962 3.98103C5.1537 4.00055 5.21851 4.00055 5.27822 3.98537C5.39982 3.955 5.50175 3.85883 5.53671 3.72507C5.58986 3.52478 5.47409 3.31437 5.27967 3.2558L5.27894 3.25508Z" fill="#68A99B"/>
</svg>
