<svg width="7" height="6" viewBox="0 0 7 6" fill="none" xmlns="http://www.w3.org/2000/svg">
<path d="M4.87214 5.01571L3.99035 3.39246L5.84641 3.44596C6.04738 3.45175 6.21486 3.29484 6.22068 3.09456C6.22724 2.89427 6.06776 2.72725 5.86752 2.72291L4.01075 2.6694L4.98573 1.09965C5.09131 0.929733 5.03816 0.707032 4.86705 0.602189C4.69593 0.497346 4.47167 0.550129 4.36609 0.720047L3.39108 2.2898L2.5093 0.666541C2.41391 0.491562 2.19255 0.425764 2.01634 0.520484C1.83867 0.615204 1.77313 0.83429 1.86852 1.00999L2.75031 2.63325L0.894272 2.57974C0.693303 2.57396 0.525823 2.73086 0.519998 2.93115C0.515629 3.06491 0.586259 3.18422 0.692569 3.24929C0.744995 3.28111 0.8069 3.30063 0.873161 3.3028L2.72993 3.3563L1.75495 4.92606C1.64937 5.09597 1.70252 5.31868 1.87363 5.42352C2.04475 5.52836 2.26901 5.47558 2.37459 5.30566L3.3496 3.73591L4.23138 5.35917C4.26269 5.41701 4.30782 5.46329 4.36098 5.4951C4.46729 5.56017 4.60638 5.56885 4.72434 5.50522C4.90201 5.4105 4.96752 5.19142 4.87214 5.01571Z" fill="#68A99B"/>
</svg>
