<svg width="180" height="178" viewBox="0 0 180 178" fill="none" xmlns="http://www.w3.org/2000/svg">
<g filter="url(#filter0_f_932_1549)">
<circle cx="90" cy="88" r="50" fill="#F9E160" fill-opacity="0.4"/>
</g>
<g filter="url(#filter1_f_932_1549)">
<circle cx="90.6096" cy="88" r="41.4634" fill="#F9E160" fill-opacity="0.4"/>
</g>
<circle cx="90.3049" cy="88.3049" r="29.5732" fill="#F9E160"/>
<g filter="url(#filter2_i_932_1549)">
<ellipse cx="90.3049" cy="88.3048" rx="24.5608" ry="24.5608" fill="#FE881C" fill-opacity="0.72"/>
</g>
<g filter="url(#filter3_d_932_1549)">
<path d="M89.1576 109.341V105.042C84.5777 104.692 80.9967 103.036 78.4148 100.074L81.4117 95.7751C83.5326 98.1317 86.1146 99.5488 89.1576 100.026V90.8071C87.7129 90.4249 86.5141 90.0587 85.5613 89.7084C84.6084 89.3263 83.6094 88.8008 82.5644 88.132C81.5193 87.4314 80.7201 86.5397 80.1668 85.457C79.6443 84.3424 79.383 83.0367 79.383 81.5399C79.383 79.0878 80.2744 77.0019 82.0572 75.2822C83.84 73.5625 86.2068 72.5753 89.1576 72.3205V67.878H92.8461V72.3683C96.5653 72.7823 99.6544 74.2154 102.113 76.6675L99.0243 80.8234C97.3338 79.1037 95.2743 77.9891 92.8461 77.4796V85.6958C93.9834 86.0143 94.9516 86.3168 95.7508 86.6034C96.5499 86.89 97.426 87.304 98.3788 87.8454C99.3624 88.355 100.146 88.9282 100.73 89.5651C101.314 90.1702 101.806 90.9663 102.206 91.9536C102.605 92.9408 102.805 94.0554 102.805 95.2974C102.805 97.9087 101.96 100.122 100.269 101.937C98.6094 103.721 96.135 104.756 92.8461 105.042V109.341H89.1576ZM96.2118 98.4979C96.9495 97.7017 97.3184 96.8101 97.3184 95.8228C97.3184 94.8356 96.9342 94.0395 96.1657 93.4344C95.3973 92.7975 94.2907 92.2561 92.8461 91.8102V100.074C94.3522 99.8195 95.4741 99.294 96.2118 98.4979ZM84.9158 81.1578C84.9158 82.6864 86.3297 83.8647 89.1576 84.6927V77.2407C87.8359 77.3681 86.7908 77.798 86.0223 78.5305C85.2846 79.2311 84.9158 80.1069 84.9158 81.1578Z" fill="#FFEA7C"/>
</g>
<defs>
<filter id="filter0_f_932_1549" x="0" y="-2" width="180" height="180" filterUnits="userSpaceOnUse" color-interpolation-filters="sRGB">
<feFlood flood-opacity="0" result="BackgroundImageFix"/>
<feBlend mode="normal" in="SourceGraphic" in2="BackgroundImageFix" result="shape"/>
<feGaussianBlur stdDeviation="20" result="effect1_foregroundBlur_932_1549"/>
</filter>
<filter id="filter1_f_932_1549" x="45.1462" y="42.5366" width="90.9268" height="90.9268" filterUnits="userSpaceOnUse" color-interpolation-filters="sRGB">
<feFlood flood-opacity="0" result="BackgroundImageFix"/>
<feBlend mode="normal" in="SourceGraphic" in2="BackgroundImageFix" result="shape"/>
<feGaussianBlur stdDeviation="2" result="effect1_foregroundBlur_932_1549"/>
</filter>
<filter id="filter2_i_932_1549" x="65.7441" y="63.744" width="49.1216" height="49.8334" filterUnits="userSpaceOnUse" color-interpolation-filters="sRGB">
<feFlood flood-opacity="0" result="BackgroundImageFix"/>
<feBlend mode="normal" in="SourceGraphic" in2="BackgroundImageFix" result="shape"/>
<feColorMatrix in="SourceAlpha" type="matrix" values="0 0 0 0 0 0 0 0 0 0 0 0 0 0 0 0 0 0 127 0" result="hardAlpha"/>
<feMorphology radius="0.711864" operator="erode" in="SourceAlpha" result="effect1_innerShadow_932_1549"/>
<feOffset dy="0.711864"/>
<feComposite in2="hardAlpha" operator="arithmetic" k2="-1" k3="1"/>
<feColorMatrix type="matrix" values="0 0 0 0 0 0 0 0 0 0 0 0 0 0 0 0 0 0 0.25 0"/>
<feBlend mode="normal" in2="shape" result="effect1_innerShadow_932_1549"/>
</filter>
<filter id="filter3_d_932_1549" x="78.4148" y="67.878" width="24.3901" height="42.1753" filterUnits="userSpaceOnUse" color-interpolation-filters="sRGB">
<feFlood flood-opacity="0" result="BackgroundImageFix"/>
<feColorMatrix in="SourceAlpha" type="matrix" values="0 0 0 0 0 0 0 0 0 0 0 0 0 0 0 0 0 0 127 0" result="hardAlpha"/>
<feOffset dy="0.711864"/>
<feComposite in2="hardAlpha" operator="out"/>
<feColorMatrix type="matrix" values="0 0 0 0 0 0 0 0 0 0 0 0 0 0 0 0 0 0 0.25 0"/>
<feBlend mode="normal" in2="BackgroundImageFix" result="effect1_dropShadow_932_1549"/>
<feBlend mode="normal" in="SourceGraphic" in2="effect1_dropShadow_932_1549" result="shape"/>
</filter>
</defs>
</svg>
