<?xml version="1.0" encoding="utf-8"?>
<!-- Generator: Adobe Illustrator 24.1.1, SVG Export Plug-In . SVG Version: 6.00 Build 0)  -->
<svg version="1.1" id="Layer_1" xmlns="http://www.w3.org/2000/svg" xmlns:xlink="http://www.w3.org/1999/xlink" x="0px" y="0px"
	 viewBox="0 0 154 155" style="enable-background:new 0 0 154 155;" xml:space="preserve">
<style type="text/css">
	.st0{fill:#521686;}
	.st1{fill:#7E22CE;}
	.st2{fill-rule:evenodd;clip-rule:evenodd;fill:#521686;}
	.st3{opacity:0.8;}
	.st4{fill:none;}
	.st5{fill:#F4F4F8;}
	.st6{fill:none;stroke:#0E0E0E;stroke-linecap:round;stroke-miterlimit:10;}
	.st7{fill:none;stroke:#0E0E0E;stroke-linecap:round;stroke-linejoin:round;stroke-miterlimit:10;}
	.st8{fill:#0E0E0E;stroke:#0E0E0E;stroke-miterlimit:10;}
</style>
<path class="st0" d="M146.9,97.1c-9.7,39.1-49.4,62.9-88.5,53.2c-39-9.7-62.9-49.4-53.2-88.4C14.9,22.7,54.6-1.1,93.7,8.7
	S156.6,58,146.9,97.1z"/>
<ellipse class="st1" cx="79.3" cy="76.4" rx="73" ry="73"/>
<path class="st2" d="M20.9,75.4C20.9,43.2,47.1,17,79.3,17s58.4,26.2,58.4,58.4s-26.2,58.4-58.4,58.4c-0.4,0-0.7,0-1.1,0
	c30.7-0.6,55.3-25.6,55.3-56.4c0-31.2-25.2-56.4-56.4-56.4c-30.8,0-55.8,24.7-56.4,55.3C20.9,76.1,20.9,75.8,20.9,75.4z"/>
<g class="st3">
	<path class="st4" d="M5,61.8c-9.7,39.1,14,78.8,53.2,88.5c29.5,7.3,59.2-4.4,76.2-27.3c11-12.8,17.6-29.4,17.6-47.5
		c0-40.3-32.7-73-73-73C55.1,2.4,33.7,14,20.5,31.9C13.3,40.3,7.9,50.3,5,61.8z"/>
</g>
<path class="st5" d="M115.7,75.5c0,5.4-1.2,9.5-2.4,13.7c-1.3,4.4-2.9,8-3.9,10.2c-1.6,3.5-2.8,5.8-3.2,6.4
	c-1.2,2.2-2.3,3.9-3.3,5.4c-1.6,2.5-2.5,3.8-3.1,4.5c-1.4,1.5-4.5,4.9-8.4,4.5c-3.1-0.3-5.8-2.9-7.1-6.3c-2.3,0.1-4.7,0.1-7.1,0.1
	c-2.5,0-5,0-7.4-0.1c-0.3,0.5-3,6-7.7,6.2c-4.1,0.2-7.3-3.8-9.4-6.4c-0.9-1.1-1.6-2.3-3-4.7c-1.2-2.1-2.9-4.8-4.6-8.5
	c-1.7-3.6-4.4-9.3-5.9-17.1c-0.6-2.9-1-4.9-1-7.7c-0.1-2.7-0.1-11.3,5.6-19.2c1.7-2.4,3.5-4.2,5.1-5.5c-1,0.9-1.6,1.4-1.6,1.4
	c0,0,0.9-0.8,2.7-2.4c-1.1-0.5-2.7-1.3-4.2-3c-0.6-0.7-1.5-1.8-1.9-3.5c-0.1-0.6-0.7-3.4,0.8-4.9c1.7-1.7,5.3-0.9,7.3,0.6
	c1.1,0.8,1.2,1.4,3.2,3.4c1.2,1.2,2.3,2.1,3.1,2.7c1.5-1,3.7-2.2,6.4-3.3c1.3-0.5,6-2.2,12.2-2.3c8.9-0.1,15.7,3.4,18.9,5.3
	c1-0.6,2.2-1.4,3.4-2.6c1.2-1.1,2-2.1,2.7-3.1c0.4-0.4,1.6-1.4,3.4-1.7c0.6-0.1,2.5-0.4,3.8,0.7c2,1.5,1.3,4.8,1.3,5.3
	c-0.8,4.5-5.9,6.4-6.4,6.6c2.3,1.8,5.9,5.1,8.6,10.3C115.6,66.9,115.7,72.4,115.7,75.5z"/>
<g id="Stroke">
	<path class="st6" d="M49.8,50.9c-1.6,1-3.5,2.7-5.5,5.3c-5.5,7.3-6,15.4-6,19.4c0.3,10,4.6,20.2,6.5,24.4c2,4.6,4.6,8.8,7,12.6
		c2.7,4.3,6.5,8.2,10.8,7.8c3.9-0.4,6.3-4.6,7-5.7"/>
	<path class="st6" d="M59.6,59c-6,3.8-11.9,9.3-12.6,14.3c-0.8,4.8,1,13,6.3,17.9c0.8,0.8,2,1.6,3.5,2"/>
	<path class="st6" d="M69.2,95.2v0.5c0,2-1.8,3.8-3.8,3.8h-4.8c-2,0-3.8-1.8-3.8-3.8v-2.5C60.4,94.4,65.2,95,69.2,95.2z"/>
	<ellipse class="st7" cx="61.7" cy="72.3" rx="6.8" ry="2.7"/>
	<ellipse class="st8" cx="73.5" cy="57.7" rx="1.3" ry="1.8"/>
	<path class="st6" d="M58.4,45.7c1.8-1.3,4.3-2.5,7-3.5c3.3-1,7-2,11.6-2c8.3,0,15.1,2.7,18.9,5.3"/>
	<path class="st6" d="M84.4,114.6c0.7,1.3,3.1,5.4,7,5.7c4.3,0.4,8.1-3.5,10.8-7.8c2.4-3.8,5-8,7-12.6c1.9-4.3,6.2-14.4,6.5-24.4
		c0-4-0.5-12.1-6-19.4c-2-2.5-4-4.3-5.5-5.3"/>
	<path class="st6" d="M91.9,113.6c-8.3,0.8-21.9,0.8-29.2,0"/>
	<path class="st7" d="M110.6,42.7c-0.1-0.2-0.4-1.2-1.5-1.7c-0.7-0.3-1.4-0.3-1.7-0.2c-1.8,0.3-3.8,3-6.8,6c-2.7,3-4.3,4-8.1,5.1
		c4.3,0.5,9.1,0,11.9-1.6c3.8-1.8,5.5-4.8,6-6.5c0.5-2,0.3-4-1.3-5.3c-1.8-1.6-5.1-1-6.8,1c-2.7,3-9.8,9.8-12.1,9.5
		c-1.8-0.3-4.6-3.5-13-3.5s-11.3,3.2-13,3.5c-2.5,0.3-9.3-6.3-12.1-9.5c-1.8-1.8-5.1-2.5-6.8-1c-1.6,1.3-1.8,3.3-1.3,5.3
		c0.5,2,2.2,4.8,6,6.5c2.7,1.3,7.6,1.8,11.9,1.6c-3.8-1-5.1-2-8.1-5.1c-3-3-5.1-5.7-6.8-6c-0.2,0-1.4-0.2-2.3,0.6
		c-0.5,0.4-0.7,0.9-0.8,1.2"/>
	<path class="st6" d="M69.2,95.2c2.7,0,5.5,0,7.8,0s5.1,0,7.8,0"/>
	<path class="st6" d="M97.4,93.3c1.6-0.5,2.7-1.3,3.5-2c5.3-5.1,7-13,6.3-17.9c-0.8-5.1-6.5-10.3-12.6-14.3"/>
	<path class="st6" d="M84.8,95.2v0.5c0,2,1.8,3.8,3.8,3.8h4.8c2,0,3.8-1.8,3.8-3.8c0.1-0.8,0.1-1.7,0.2-2.4c-1.7,0.5-3.6,1-5.7,1.4
		C89.1,95,86.9,95.2,84.8,95.2z"/>
	<path class="st7" d="M99.6,72.3c0,1.6-3,2.7-6.8,2.7S86,73.8,86,72.3c0-1.6,3-2.7,6.8-2.7C96.6,69.8,99.6,70.8,99.6,72.3z"/>
	<ellipse class="st8" cx="81.1" cy="57.7" rx="1.3" ry="1.8"/>
</g>
</svg>
