<svg width="25" height="25" viewBox="0 0 25 25" fill="none" xmlns="http://www.w3.org/2000/svg">
<g clip-path="url(#clip0_1211_2383)">
<path d="M23.8475 15.6614C22.2728 21.9678 15.828 25.8065 9.48058 24.242C3.14941 22.6775 -0.73046 16.2743 0.844216 9.98395C2.41889 3.66137 8.8637 -0.177337 15.2111 1.40331C21.5585 2.98395 25.4221 9.35492 23.8475 15.6614Z" fill="#521686"/>
<path d="M12.8734 24.0967C19.4183 24.0967 24.724 18.8252 24.724 12.3225C24.724 5.81983 19.4183 0.54834 12.8734 0.54834C6.32842 0.54834 1.02271 5.81983 1.02271 12.3225C1.02271 18.8252 6.32842 24.0967 12.8734 24.0967Z" fill="#7E22CE"/>
<path fill-rule="evenodd" clip-rule="evenodd" d="M3.39282 12.1611C3.39282 6.96751 7.64607 2.7417 12.8733 2.7417C18.1006 2.7417 22.3539 6.96751 22.3539 12.1611C22.3539 17.3546 18.1006 21.5804 12.8733 21.5804C12.8084 21.5804 12.7597 21.5804 12.6948 21.5804C17.6785 21.4836 21.672 17.4514 21.672 12.4836C21.672 7.45138 17.5811 3.38686 12.5162 3.38686C7.5162 3.38686 3.45775 7.37073 3.36035 12.3062C3.39282 12.274 3.39282 12.2256 3.39282 12.1611Z" fill="#521686"/>
<path d="M18.7825 12.1776C18.7825 13.0486 18.5877 13.7099 18.3929 14.3873C18.1818 15.097 17.9221 15.6776 17.7598 16.0325C17.5 16.597 17.3052 16.9679 17.2403 17.0647C17.0455 17.4196 16.8669 17.6937 16.7046 17.9357C16.4448 18.3389 16.2987 18.5486 16.2013 18.6615C15.9741 18.9034 15.4708 19.4518 14.8377 19.3873C14.3344 19.3389 13.8961 18.9196 13.6851 18.3712C13.3117 18.3873 12.9221 18.3873 12.5325 18.3873C12.1267 18.3873 11.7208 18.3873 11.3312 18.3712C11.2825 18.4518 10.8442 19.3389 10.0812 19.3712C9.41561 19.4034 8.89613 18.7583 8.55523 18.3389C8.40912 18.1615 8.29548 17.9679 8.06821 17.5808C7.87341 17.2421 7.59743 16.8066 7.32146 16.2099C7.04548 15.6292 6.60717 14.7099 6.36367 13.4518C6.26626 12.9841 6.20133 12.6615 6.20133 12.2099C6.1851 11.7744 6.1851 10.3873 7.11042 9.1131C7.38639 8.726 7.6786 8.43568 7.93834 8.226C7.776 8.37117 7.6786 8.45181 7.6786 8.45181C7.6786 8.45181 7.82471 8.32278 8.11691 8.06471C7.93834 7.98407 7.6786 7.85504 7.4351 7.58084C7.33769 7.46794 7.19159 7.29052 7.12665 7.01633C7.11042 6.91955 7.01302 6.46794 7.25652 6.226C7.5325 5.95181 8.11691 6.08084 8.44159 6.32278C8.62016 6.45181 8.63639 6.54858 8.96107 6.87117C9.15587 7.06471 9.33445 7.20988 9.46432 7.30665C9.70782 7.14536 10.065 6.95181 10.5033 6.77439C10.7143 6.69375 11.4773 6.41955 12.4838 6.40342C13.9286 6.38729 15.0325 6.95181 15.552 7.25826C15.7143 7.16149 15.9091 7.03246 16.1039 6.83891C16.2987 6.66149 16.4286 6.5002 16.5422 6.33891C16.6072 6.27439 16.802 6.1131 17.0942 6.06471C17.1916 6.04858 17.5 6.0002 17.7111 6.17762C18.0357 6.41955 17.9221 6.95181 17.9221 7.03246C17.7922 7.75826 16.9643 8.06471 16.8831 8.09697C17.2565 8.38729 17.8409 8.91955 18.2792 9.75826C18.7663 10.7905 18.7825 11.6776 18.7825 12.1776Z" fill="#F4F4F8"/>
<path d="M8.08441 8.20947C7.82467 8.37076 7.51623 8.64496 7.19156 9.06431C6.2987 10.2417 6.21753 11.5482 6.21753 12.1933C6.26623 13.8062 6.96428 15.4514 7.27272 16.1288C7.5974 16.8708 8.01948 17.5482 8.40909 18.1611C8.8474 18.8546 9.46428 19.4837 10.1623 19.4192C10.7955 19.3546 11.1851 18.6772 11.2987 18.4998" stroke="#0E0E0E" stroke-width="0.3" stroke-miterlimit="10" stroke-linecap="round"/>
<path d="M9.67538 9.51611C8.70135 10.129 7.74356 11.0161 7.62992 11.8226C7.50005 12.5968 7.79226 13.9193 8.65265 14.7097C8.78252 14.8387 8.97732 14.9677 9.22083 15.0322" stroke="#0E0E0E" stroke-width="0.3" stroke-miterlimit="10" stroke-linecap="round"/>
<path d="M11.2338 15.3548V15.4355C11.2338 15.758 10.9416 16.0484 10.6169 16.0484H9.83771C9.51303 16.0484 9.22083 15.758 9.22083 15.4355V15.0322C9.80524 15.2258 10.5845 15.3225 11.2338 15.3548Z" stroke="#0E0E0E" stroke-width="0.3" stroke-miterlimit="10" stroke-linecap="round"/>
<path d="M10.0162 12.0966C10.6259 12.0966 11.1201 11.9016 11.1201 11.6611C11.1201 11.4206 10.6259 11.2256 10.0162 11.2256C9.40658 11.2256 8.91235 11.4206 8.91235 11.6611C8.91235 11.9016 9.40658 12.0966 10.0162 12.0966Z" stroke="#0E0E0E" stroke-width="0.3" stroke-miterlimit="10" stroke-linecap="round" stroke-linejoin="round"/>
<path d="M11.9319 9.59676C12.0484 9.59676 12.1429 9.46678 12.1429 9.30644C12.1429 9.1461 12.0484 9.01611 11.9319 9.01611C11.8153 9.01611 11.7208 9.1461 11.7208 9.30644C11.7208 9.46678 11.8153 9.59676 11.9319 9.59676Z" fill="#0E0E0E" stroke="#0E0E0E" stroke-width="0.3" stroke-miterlimit="10"/>
<path d="M9.48047 7.37098C9.77268 7.16131 10.1785 6.96776 10.6168 6.80647C11.1525 6.64518 11.7532 6.48389 12.4999 6.48389C13.8474 6.48389 14.9512 6.91937 15.5681 7.33873" stroke="#0E0E0E" stroke-width="0.3" stroke-miterlimit="10" stroke-linecap="round"/>
<path d="M13.7013 18.4837C13.8149 18.6934 14.2045 19.3547 14.8377 19.403C15.5357 19.4676 16.1526 18.8385 16.5909 18.145C16.9805 17.5321 17.4026 16.8547 17.7273 16.1127C18.0357 15.4192 18.7338 13.7901 18.7825 12.1772C18.7825 11.5321 18.7013 10.2256 17.8084 9.0482C17.4838 8.64497 17.1591 8.35465 16.9156 8.19336" stroke="#0E0E0E" stroke-width="0.3" stroke-miterlimit="10" stroke-linecap="round"/>
<path d="M14.9188 18.3228C13.5714 18.4518 11.3637 18.4518 10.1786 18.3228" stroke="#0E0E0E" stroke-width="0.3" stroke-miterlimit="10" stroke-linecap="round"/>
<path d="M17.9545 6.88711C17.9383 6.85485 17.8896 6.69356 17.711 6.61292C17.5974 6.56453 17.4838 6.56453 17.4351 6.58066C17.1429 6.62905 16.8182 7.06453 16.3312 7.5484C15.8929 8.03227 15.6331 8.19356 15.0162 8.37098C15.7143 8.45163 16.4935 8.37098 16.9481 8.11292C17.5649 7.82259 17.8409 7.33872 17.9221 7.06453C18.0032 6.74195 17.9708 6.41937 17.711 6.20969C17.4188 5.95163 16.8831 6.0484 16.6071 6.37098C16.1688 6.85485 15.0162 7.95163 14.6429 7.90324C14.3506 7.85485 13.8961 7.33872 12.5325 7.33872C11.1688 7.33872 10.6981 7.85485 10.4221 7.90324C10.0162 7.95163 8.91234 6.88711 8.45779 6.37098C8.16558 6.08066 7.62987 5.96775 7.3539 6.20969C7.09415 6.41937 7.06169 6.74195 7.14286 7.06453C7.22403 7.38711 7.5 7.83872 8.11688 8.11292C8.55519 8.32259 9.35065 8.40324 10.0487 8.37098C9.43182 8.20969 9.22078 8.0484 8.73377 7.5484C8.24675 7.06453 7.90584 6.62905 7.62987 6.58066C7.5974 6.58066 7.4026 6.5484 7.25649 6.67743C7.17532 6.74195 7.14286 6.82259 7.12662 6.87098" stroke="#0E0E0E" stroke-width="0.3" stroke-miterlimit="10" stroke-linecap="round" stroke-linejoin="round"/>
<path d="M11.2338 15.355C11.6721 15.355 12.1266 15.355 12.5 15.355C12.8734 15.355 13.3279 15.355 13.7662 15.355" stroke="#0E0E0E" stroke-width="0.3" stroke-miterlimit="10" stroke-linecap="round"/>
<path d="M15.8117 15.0484C16.0715 14.9677 16.25 14.8387 16.3799 14.7258C17.2403 13.9032 17.5163 12.629 17.4026 11.8387C17.2728 11.0161 16.3474 10.1774 15.3572 9.53223" stroke="#0E0E0E" stroke-width="0.3" stroke-miterlimit="10" stroke-linecap="round"/>
<path d="M13.7662 15.3548V15.4354C13.7662 15.758 14.0584 16.0483 14.3831 16.0483H15.1623C15.487 16.0483 15.7792 15.758 15.7792 15.4354C15.7955 15.3064 15.7955 15.1612 15.8117 15.0483C15.5357 15.129 15.2273 15.2096 14.8864 15.2741C14.4643 15.3225 14.1071 15.3548 13.7662 15.3548Z" stroke="#0E0E0E" stroke-width="0.3" stroke-miterlimit="10" stroke-linecap="round"/>
<path d="M16.1689 11.6611C16.1689 11.9191 15.6818 12.0966 15.065 12.0966C14.4481 12.0966 13.9611 11.903 13.9611 11.6611C13.9611 11.403 14.4481 11.2256 15.065 11.2256C15.6818 11.2578 16.1689 11.4191 16.1689 11.6611Z" stroke="#0E0E0E" stroke-width="0.3" stroke-miterlimit="10" stroke-linecap="round" stroke-linejoin="round"/>
<path d="M13.1656 9.59676C13.2822 9.59676 13.3767 9.46678 13.3767 9.30644C13.3767 9.1461 13.2822 9.01611 13.1656 9.01611C13.0491 9.01611 12.9546 9.1461 12.9546 9.30644C12.9546 9.46678 13.0491 9.59676 13.1656 9.59676Z" fill="#0E0E0E" stroke="#0E0E0E" stroke-width="0.3" stroke-miterlimit="10"/>
</g>
<defs>
<clipPath id="clip0_1211_2383">
<rect width="25" height="25" fill="white"/>
</clipPath>
</defs>
</svg>
