<svg width="37" height="13" viewBox="0 0 37 13" fill="none" xmlns="http://www.w3.org/2000/svg">
<g filter="url(#filter0_i_90_135)">
<path d="M0 0H37V6C37 9.86599 33.866 13 30 13H7C3.13401 13 0 9.86599 0 6V0Z" fill="url(#paint0_linear_90_135)"/>
</g>
<path d="M7.37711 9.07C6.91044 9.07 6.49044 8.99 6.11711 8.83C5.74378 8.66333 5.45044 8.43 5.23711 8.13C5.02378 7.83 4.91711 7.48 4.91711 7.08H6.13711C6.16378 7.38 6.28044 7.62667 6.48711 7.82C6.70044 8.01333 6.99711 8.11 7.37711 8.11C7.77044 8.11 8.07711 8.01667 8.29711 7.83C8.51711 7.63667 8.62711 7.39 8.62711 7.09C8.62711 6.85667 8.55711 6.66667 8.41711 6.52C8.28378 6.37333 8.11378 6.26 7.90711 6.18C7.70711 6.1 7.42711 6.01333 7.06711 5.92C6.61378 5.8 6.24378 5.68 5.95711 5.56C5.67711 5.43333 5.43711 5.24 5.23711 4.98C5.03711 4.72 4.93711 4.37333 4.93711 3.94C4.93711 3.54 5.03711 3.19 5.23711 2.89C5.43711 2.59 5.71711 2.36 6.07711 2.2C6.43711 2.04 6.85378 1.96 7.32711 1.96C8.00044 1.96 8.55044 2.13 8.97711 2.47C9.41044 2.80333 9.65044 3.26333 9.69711 3.85H8.43711C8.41711 3.59667 8.29711 3.38 8.07711 3.2C7.85711 3.02 7.56711 2.93 7.20711 2.93C6.88044 2.93 6.61378 3.01333 6.40711 3.18C6.20044 3.34667 6.09711 3.58667 6.09711 3.9C6.09711 4.11333 6.16044 4.29 6.28711 4.43C6.42044 4.56333 6.58711 4.67 6.78711 4.75C6.98711 4.83 7.26044 4.91667 7.60711 5.01C8.06711 5.13667 8.44044 5.26333 8.72711 5.39C9.02044 5.51667 9.26711 5.71333 9.46711 5.98C9.67378 6.24 9.77711 6.59 9.77711 7.03C9.77711 7.38333 9.68044 7.71667 9.48711 8.03C9.30044 8.34333 9.02378 8.59667 8.65711 8.79C8.29711 8.97667 7.87044 9.07 7.37711 9.07ZM14.0923 9.07C13.4456 9.07 12.8489 8.92 12.3023 8.62C11.7623 8.31333 11.3323 7.89 11.0123 7.35C10.6989 6.80333 10.5423 6.19 10.5423 5.51C10.5423 4.83 10.6989 4.22 11.0123 3.68C11.3323 3.14 11.7623 2.72 12.3023 2.42C12.8489 2.11333 13.4456 1.96 14.0923 1.96C14.7456 1.96 15.3423 2.11333 15.8823 2.42C16.4289 2.72 16.8589 3.14 17.1723 3.68C17.4856 4.22 17.6423 4.83 17.6423 5.51C17.6423 6.19 17.4856 6.80333 17.1723 7.35C16.8589 7.89 16.4289 8.31333 15.8823 8.62C15.3423 8.92 14.7456 9.07 14.0923 9.07ZM14.0923 8.08C14.5523 8.08 14.9623 7.97667 15.3223 7.77C15.6823 7.55667 15.9623 7.25667 16.1623 6.87C16.3689 6.47667 16.4723 6.02333 16.4723 5.51C16.4723 4.99667 16.3689 4.54667 16.1623 4.16C15.9623 3.77333 15.6823 3.47667 15.3223 3.27C14.9623 3.06333 14.5523 2.96 14.0923 2.96C13.6323 2.96 13.2223 3.06333 12.8623 3.27C12.5023 3.47667 12.2189 3.77333 12.0123 4.16C11.8123 4.54667 11.7123 4.99667 11.7123 5.51C11.7123 6.02333 11.8123 6.47667 12.0123 6.87C12.2189 7.25667 12.5023 7.55667 12.8623 7.77C13.2223 7.97667 13.6323 8.08 14.0923 8.08ZM21.7341 9.07C21.0874 9.07 20.4907 8.92 19.9441 8.62C19.4041 8.31333 18.9741 7.89 18.6541 7.35C18.3407 6.80333 18.1841 6.19 18.1841 5.51C18.1841 4.83 18.3407 4.22 18.6541 3.68C18.9741 3.14 19.4041 2.72 19.9441 2.42C20.4907 2.11333 21.0874 1.96 21.7341 1.96C22.3874 1.96 22.9841 2.11333 23.5241 2.42C24.0707 2.72 24.5007 3.14 24.8141 3.68C25.1274 4.22 25.2841 4.83 25.2841 5.51C25.2841 6.19 25.1274 6.80333 24.8141 7.35C24.5007 7.89 24.0707 8.31333 23.5241 8.62C22.9841 8.92 22.3874 9.07 21.7341 9.07ZM21.7341 8.08C22.1941 8.08 22.6041 7.97667 22.9641 7.77C23.3241 7.55667 23.6041 7.25667 23.8041 6.87C24.0107 6.47667 24.1141 6.02333 24.1141 5.51C24.1141 4.99667 24.0107 4.54667 23.8041 4.16C23.6041 3.77333 23.3241 3.47667 22.9641 3.27C22.6041 3.06333 22.1941 2.96 21.7341 2.96C21.2741 2.96 20.8641 3.06333 20.5041 3.27C20.1441 3.47667 19.8607 3.77333 19.6541 4.16C19.4541 4.54667 19.3541 4.99667 19.3541 5.51C19.3541 6.02333 19.4541 6.47667 19.6541 6.87C19.8607 7.25667 20.1441 7.55667 20.5041 7.77C20.8641 7.97667 21.2741 8.08 21.7341 8.08ZM31.9159 9H30.7759L27.3459 3.81V9H26.2059V2.04H27.3459L30.7759 7.22V2.04H31.9159V9Z" fill="white"/>
<defs>
<filter id="filter0_i_90_135" x="0" y="-1" width="38" height="14" filterUnits="userSpaceOnUse" color-interpolation-filters="sRGB">
<feFlood flood-opacity="0" result="BackgroundImageFix"/>
<feBlend mode="normal" in="SourceGraphic" in2="BackgroundImageFix" result="shape"/>
<feColorMatrix in="SourceAlpha" type="matrix" values="0 0 0 0 0 0 0 0 0 0 0 0 0 0 0 0 0 0 127 0" result="hardAlpha"/>
<feOffset dx="1" dy="-1"/>
<feGaussianBlur stdDeviation="2"/>
<feComposite in2="hardAlpha" operator="arithmetic" k2="-1" k3="1"/>
<feColorMatrix type="matrix" values="0 0 0 0 0 0 0 0 0 0 0 0 0 0 0 0 0 0 0.25 0"/>
<feBlend mode="normal" in2="shape" result="effect1_innerShadow_90_135"/>
</filter>
<linearGradient id="paint0_linear_90_135" x1="18.5" y1="0" x2="18.5" y2="13" gradientUnits="userSpaceOnUse">
<stop stop-color="#FA9E9E"/>
<stop offset="0.276" stop-color="#F52A2A"/>
<stop offset="1" stop-color="#8F1919"/>
</linearGradient>
</defs>
</svg>
