<?xml version="1.0" encoding="UTF-8"?>
<svg xmlns="http://www.w3.org/2000/svg" version="1.1" viewBox="0 0 512 512">
  <defs>
    <style>
      .cls-1 {
        fill: #fff;
      }

      .cls-2 {
        display: none;
        fill: #ddac6c;
      }
    </style>
  </defs>
  <!-- Generator: Adobe Illustrator 28.6.0, SVG Export Plug-In . SVG Version: 1.2.0 Build 709)  -->
  <g>
    <g id="Capa_1">
      <g>
        <g id="Fill_1">
          <path class="cls-1" d="M256,53.3c-44.1-17.7-88.3-9.9-115.3,19.4-43.6,2.5-78.9,24.7-93.4,68.9-29.6,17.7-38.5,44.1-38.5,72.6s58.3,118.3,134.8,175.1l-5.3,28.9c-3.5,18.9,8.7,37.1,27.5,40.9,59.4,12.2,120.7,12.2,180.1,0,18.8-3.9,31.1-22.1,27.5-40.9l-5.3-28.9c76.6-56.7,134.8-151,134.8-175.1s-8.8-55-38.5-72.6c-14.5-44.1-49.8-66.4-93.4-68.9-27.1-29.3-71.2-37-115.3-19.4h0Z"/>
        </g>
        <g id="Effect_Line">
          <path d="M79.5,280.8c-2.8,0-5.5-1.3-7.1-3.6-6.1-8.4-11.8-16.8-17-25-2.6-4.1-1.4-9.6,2.7-12.2s9.6-1.4,12.2,2.7c0,0,0,.1,0,.2,4.9,7.8,10.4,15.9,16.3,24,2.9,3.9,2,9.5-1.9,12.3-1.5,1.1-3.3,1.7-5.2,1.7h0Z"/>
          <path class="cls-2" d="M432.5,280.8c-4.9,0-8.8-4-8.8-8.8,0-1.9.6-3.7,1.7-5.2,13.6-17.5,24.9-36.8,33.6-57.2,1.3-4.7,6.2-7.4,10.9-6.1s7.4,6.2,6.1,10.9c0,0,0,.2,0,.2-9.1,22.4-21.3,43.4-36.2,62.5-1.7,2.3-4.3,3.6-7.1,3.6h0Z"/>
          <path class="cls-2" d="M256,441.7c-4.9,0-8.8-4-8.8-8.8s4-8.8,8.8-8.8c24.4,0,48.7-2.3,72.7-6.6l-3.8-20.2c-.8-4.8,2.4-9.4,7.2-10.2,4.7-.8,9.1,2.3,10.1,6.9l5.5,28.9c.9,4.7-2.2,9.3-6.9,10.3-27.9,5.6-56.3,8.5-84.8,8.6h0Z"/>
          <circle cx="44.1" cy="212.2" r="8.8"/>
        </g>
        <g id="Line">
          <path d="M512,214.2c0-35.6-13.1-61.3-40-78.5-15.2-42.5-49.3-67.8-96.7-71.6-29.2-29.4-74.3-37.1-119.3-20.3-45-16.8-90.1-9.1-119.3,20.3-47.4,3.8-81.6,29.1-96.7,71.6C13.1,152.8,0,178.5,0,214.2s62.1,123.7,134,178.8l-4.3,23.5c-4.3,23.6,11,46.3,34.5,51.2,60.6,12.4,123.1,12.4,183.7,0,23.5-4.9,38.7-27.6,34.5-51.2l-4.3-23.5c71.9-55.2,134-149.4,134-178.8h0ZM363.1,382.1c-2.7,2-4,5.4-3.4,8.7l5.3,28.9c2.6,14.1-6.6,27.7-20.6,30.7-58.3,11.9-118.4,11.9-176.6,0-14.1-3-23.2-16.6-20.6-30.7l5.3-28.9c.6-3.3-.7-6.7-3.4-8.7C74.5,327,17.7,234.7,17.7,214.2s8.4-46,26.3-59.7l103.5,203c2.1,4.4,7.4,6.3,11.8,4.2s6.3-7.4,4.2-11.8c0-.1-.1-.3-.2-.4L57,141.1c11.6-33.2,41.8-56.3,76.9-58.8l66.1,290.7c.9,4,4.5,6.9,8.6,6.9.7,0,1.3,0,2-.2,4.8-1.1,7.7-5.8,6.7-10.6,0,0,0,0,0,0L150.4,75.5c15.9-15.1,37.2-23.2,59.1-22.8,12.9.1,25.6,2.4,37.7,6.8v320.4c0,4.9,4,8.8,8.8,8.8s8.8-4,8.8-8.8V59.4c36.8-12.9,73.1-6.9,96.8,16l-66.8,293.6c-1.1,4.8,1.9,9.5,6.6,10.6,0,0,0,0,0,0,.6.2,1.3.2,2,.2,4.1,0,7.7-2.9,8.6-6.9l66.1-290.7c35.1,2.4,65.3,25.6,76.9,58.8l-106.3,208.3c-2.3,4.3-.7,9.6,3.6,12s9.6.7,12-3.6c0-.1.1-.3.2-.4l103.5-203c17.9,13.7,26.3,32.9,26.3,59.7s-56.8,112.8-131.3,167.9h0Z"/>
        </g>
      </g>
    </g>
  </g>
</svg>